<svg class="us-state-map"
			xmlns="http://www.w3.org/2000/svg"
			width="959"
			height="593"
			viewBox="0 0 959 593">
<g class="outlines">
	<path id="CA-AB" class="st0" d="M1259.5,1028c-53.5-14.1-47.8-12-50.9-19.1l-2.7-6l2.2-11.1c2.3-11.7,2.2-14.6-0.9-20.7
		c-1-2.1-4-7.9-6.5-12.9s-5.6-12-6.7-15.5c-1.2-3.5-3.4-8.3-5-10.7c-1.6-2.4-3.2-6-3.6-8c-0.4-2-1.9-5.1-3.5-6.9
		c-1.6-1.8-2.9-3.8-2.9-4.3s-0.9-2.4-2.1-4c-1.2-1.7-2.5-5.8-3-9.6c-0.6-4.2-1.8-8-3.4-10.2c-1.3-1.9-2.9-4.7-3.4-6.2
		c-0.6-1.5-2.6-3.7-4.5-5c-3.5-2.3-4.8-5.9-2.6-7.3c0.6-0.3,1-3.1,1-6.2c0-5.4,6.6-24.3,51.2-146.9l4-11.1l22.1,7.4
		c12.2,4.1,30.7,9.9,41.1,12.9s28.9,8.5,40.9,12c12.1,3.5,22,6.5,22.2,6.7c0.7,0.7-3,15.3-4,16c-0.6,0.4-2.2,1-3.5,1.4
		c-2.5,0.7-13,11-13.1,12.9c0,0.6,1.6,1.8,3.5,2.8c3.4,1.6,3.7,1.6,6.4-0.3c1.6-1.1,3.2-3,3.5-4.1c0.4-1.1,0.9-1.8,1.1-1.6
		c0.3,0.3-1.3,7.8-3.5,16.8c-5.1,21.3-10.6,44.3-18.2,75.9c-3.3,14-7.2,30-8.5,35.5c-6.7,27.7-12.6,52.5-15.8,66
		c-17,71.2-15.5,65.6-16.5,65.4C1273.8,1031.8,1267.2,1030.1,1259.5,1028z"/>
	<g id="CA-BC">
		<path id="path2159" class="st0" d="M1047,975.7c-6.4-4.1-16-16.6-16-20.9c0-2.4-0.6-3.2-2.9-4.1c-3-1.1-5.2-5-6.6-11.2
			c-0.3-1.7-1.6-4.6-2.9-6.5c-1.2-1.9-3-5.5-4-8c-1-2.5-3.6-7.5-5.8-11.3c-2.4-4.1-4.6-9.2-5.3-13c-0.7-3.4-1.9-7.7-2.6-9.5
			c-1.3-3.1-1.2-3.4,1.6-5.7c1.6-1.3,3.8-2.5,4.9-2.5c2,0,7.9,5.7,17.6,16.9c3,3.5,6,6.9,6.5,7.5c0.6,0.6,2.6,3.1,4.5,5.6
			s3.7,4.7,4,5c1.4,1.2,3.9,10,4.6,15.9c0.6,5.6,1.3,7.2,5.6,12.9c5.8,7.6,6.3,8.7,7.2,16.6c0.4,3.2,1.3,7.6,2.1,9.7
			c0.7,2.1,1.1,4.1,0.7,4.4C1058.8,978.9,1050.3,977.8,1047,975.7z"/>
		<path id="path2165" class="st0" d="M1205.5,1013.4c-0.9-0.3-21.5-6.7-37.5-11.7c-5.5-1.7-63.9-23.6-88-33c-4.1-1.6-8.8-3.4-10.5-4
			c-3.8-1.4-4.5-2.4-4.5-7c0-2.6-0.7-4.3-2.1-5.5c-5.8-4.8-7.9-7.2-7.9-9.1c0-1.2-0.4-2.1-0.9-2.1c-2.4,0-5.9-5.3-6.5-9.9
			c-1-7.5-4.3-14-10.2-20c-5.3-5.4-5.3-5.5-4.8-10.2c0.5-3.9,0.3-4.8-0.9-4.8c-0.8,0-1.7-0.4-1.9-0.8c-0.2-0.4-2.5-2-5.1-3.5
			c-2.6-1.5-4.8-3.3-4.8-4c0-0.7-0.3-2.1-0.5-3.2c-0.6-2.7-0.6-4.5-0.5-15.2c0.1-9,0.2-9.3,3.2-11.8c2.8-2.4,3-2.8,1.9-5.7
			c-0.6-1.7-1.1-4.9-1.1-7.1c0-3-1-5.3-4-9.7c-3.4-4.8-3.9-6.3-3.5-9.2c0.3-1.9,1.5-4.2,2.6-5.1c2.3-1.9,2.1-3.5-1.4-10.3
			c-1.7-3.4-2-5.9-2-17c0-12.5,0.1-13,2.6-15.5c1.4-1.4,4.9-3.4,7.9-4.5c7.2-2.7,12.9-7.8,12.9-11.6c0-4,2.2-8.7,5.9-12.8
			c2.8-3.1,3.1-4.1,3.1-9.6c0-5.6-0.3-6.4-3-8.8c-3.4-3.1-9.4-14.4-11.1-20.9c-1-3.9-0.8-6,1.6-15.7c2.4-9.9,2.6-11.9,1.6-16.9
			c-0.6-3.1-1.3-9.9-1.7-15.2c-0.3-5.2-0.8-10.4-1-11.6c-0.2-1.2-0.7-3.9-1-6c-0.3-2.1-1.9-9.5-3.5-16.4c-1.6-6.9-3.2-13.5-3.5-14.7
			c-0.3-1.4-1.9-2.8-4.2-3.8c-7-2.9-7.9-2.9-9.9,0.4c-1.3,2.2-3.4,3.6-7.9,5.2c-3.3,1.2-7.8,3-10,4.1c-2.2,1-4,1.9-4.2,1.9
			c-0.1,0,0.2-1.5,0.6-3.2c1.4-5,0.5-17-1.5-20c-2.1-3.1-1.8-12.4,0.4-12c0.7,0.2,10.8,6.5,22.5,14.1c31.7,20.7,66.3,41.8,83.1,50.6
			c8.2,4.3,15.4,8.1,16,8.5c2.7,1.9,33.6,17.5,45,22.8c7.2,3.3,22.7,9.7,34.5,14.2c11.8,4.6,21.9,8.6,22.3,9s0.3,1.8-0.2,3.1
			c-0.6,1.3-5.8,15.7-11.6,31.9c-5.8,16.2-12.3,34.2-14.5,40c-23.1,63-28,77.3-28,82.3c0,3-0.6,6.1-1.5,7.3
			c-2.2,3.1-0.9,7.4,2.8,9.8c4.7,3,10.7,14.2,11.4,21.2c0.4,3.8,1.5,7.2,3.4,10.2c1.6,2.5,2.8,4.9,2.8,5.5c0,0.5,1.1,2.1,2.4,3.6
			c1.3,1.4,2.9,4.7,3.6,7.3c0.7,2.6,1.7,5,2.2,5.3c1.3,0.8,5.4,9.4,6.3,12.9c0.4,1.7,3.9,9.5,7.8,17.4c4.1,8.3,7.1,15.7,7.1,17.5
			c0,1.7-0.8,7.3-1.7,12.5c-1.8,9.7-1.5,13.8,1.1,17.9C1207.3,1013.1,1207.2,1013.9,1205.5,1013.4z"/>
		<path id="path2153" class="st0" d="M976.2,824.7c-4.1-9.4-5.6-20.6-4.9-36.6c0.4-9.3,1-14.9,1.9-15.9c0.7-0.8,1.3-2.3,1.3-3.1
			c0-2.6,4.3-2.5,8.3,0.2c4.8,3.2,11.2,9.6,11.2,11.1c0,0.7-4,5.4-9,10.6c-10.5,11-10.7,11.5-6.5,26.5c1.4,4.9,2.5,9.8,2.5,10.7
			C981,831.7,978.4,829.8,976.2,824.7z"/>
	</g>
	<path id="CA-MB" class="st0" d="M1453.2,765.8l-0.7,6.3c-0.4,3.5-0.9,7-1,7.8s-0.6,4-1,7s-0.9,6.2-1,7c-0.1,0.8-1,7.3-2,14.4
		c-1.6,12.2-1.6,13.1,0,15.8c1.7,2.8,1.6,2.9-1.1,6.4c-1.6,2-3.3,4.3-4,5.2c-0.6,0.9-1.5,7.5-1.8,14.6s-0.8,14.8-1,17
		c-0.2,2.2-0.6,8-1,13s-0.8,11.7-1.1,15c-1,13.7-1.5,19.4-2,27c-0.3,4.4-0.8,10.2-1,13s-0.7,9.5-1,15s-0.8,11.8-1,14
		s-0.6,8.7-1,14.5s-0.8,12.1-1,14s-0.6,8.7-1,15s-0.8,12.2-1,13c-0.5,2.7-1.9,25.4-1.9,32l-0.1,6.5l6,0.6c9.6,1,18.8,2,21.5,2.4
		c1.4,0.2,5,0.6,8,1c5.8,0.6,9.1,1,18,2.1c3,0.4,9.8,1,15,1.3s14.1,0.8,19.7,0.9l10.1,0.3l0.6-4.8c0.3-2.6,0.8-10.2,1.1-16.8
		c0.3-6.6,0.7-15.2,1-19c0.2-3.8,0.7-13.8,1-22c1.1-28.6,1.4-31.5,3.8-35.5c1.2-2,8.3-10.2,15.8-18.1s15.6-16.6,18-19.3
		c2.4-2.7,4.9-5.5,5.4-6.1c9.6-10.8,14.3-16.2,19.4-22.4c3.4-4.1,9.4-10.9,13.2-15.1s8.5-9.4,10.3-11.5c1.9-2.1,5.7-6.3,8.5-9.4
		s5.1-6,5.1-6.6c0-1.1-5.2-3.3-9.8-4c-6.9-1.1-8.8-1.8-10-3.4c-1-1.4-2.6-1.7-7.3-1.6c-3.3,0.1-6.4,0.6-6.8,1.2
		c-0.8,1.2-12.4,2.7-14.6,1.8c-1-0.4-1.2-1.2-0.7-2.7c0.8-2.1,0.6-3.3-2.2-16.8c-2-9.6-2.6-12.5-3.2-18c-0.8-6.3-3.4-8.2-13.8-10.4
		c-6.7-1.4-9-2.3-9.8-3.9c-1.2-2.3-1.2-10.2,0.1-20.9l0.8-6.8l-5.3-0.1c-2.9-0.1-5.7-0.2-6.1-0.3s-4.1-0.5-8.2-1s-8.2-0.9-9-1.1
		c-0.8-0.1-4.6-0.6-8.4-1c-3.8-0.4-7.9-0.9-9-1.1c-1.1-0.2-4.8-0.6-8.1-0.9s-9.6-1-14-1.5s-10.7-1.2-14-1.5s-8.1-0.8-10.7-1.2
		L1453.2,765.8z M1481.8,937.7c3.9,0,6.4,1.8,8.4,5.7c1.2,2.3,2.4,4.3,2.8,4.6c1.9,1.3,6.4,13.5,5.6,14.8c-0.5,0.9,1.3,6.4,3.2,9.9
		c0.7,1.2,1.1,4.6,1,7.5c-0.2,5.6,3.1,17.8,6.2,23.2c1.3,2.2,1.8,5.7,2.1,12.5c0.3,9.4,0.2,9.5-2.1,9.8c-1.3,0.2-3.2,1.4-4.3,2.8
		c-2.2,2.8-4,3-6.1,1c-1.7-1.7-1.2-8.9,0.9-12c0.7-1.1,1.6-3.3,1.8-4.9c0.3-1.6,1.1-3.5,1.8-4.3c2-2.4,1.9-4.8-0.2-6.1
		c-1.6-1-2.1-0.9-3.2,0.8c-1.4,2.2-3.8,2.7-3.8,0.8c0-0.6,0.5-2.6,1.2-4.3c2.7-7.4-1.7-13.9-8-11.7c-2.6,0.9-3.3,0.7-5-1.1
		c-1.1-1.2-2.6-4.3-3.5-6.9s-2.7-6.2-4-8c-1.7-2.3-2.3-4.2-2-6.3c0.4-2.7,0-3.2-4.4-5.6c-6.5-3.4-9.1-2.4-9.3,3.5
		c-0.1,2.3-0.3,6.3-0.5,9.1c-0.9,13.7-0.9,13.8,3.2,17c8.8,7,9.5,7.9,10.9,14c0.8,3.3,1.4,7.6,1.3,9.6c0,2,1.2,5.9,2.6,8.7
		c3.3,6.6,3.5,11.7,0.3,12.6c-3.3,0.9-4.6,0.8-5.3-0.5c-0.7-1.1-3.4-13.8-5.4-24.8c-1.1-6.2-2.6-8.1-9.5-12.6
		c-5.5-3.6-8.2-6.4-7.9-8.3c0.1-0.7,0.2-2.1,0.3-3.2s0.7-2.5,1.5-3.3c0.9-0.9,1.3-3.7,1.3-8c0-6.6,0-6.6-3.8-8.8
		c-4.3-2.4-5.8-4.7-5.8-8.5c0-2.1,0.5-2.6,2.5-2.6c3.7,0,5-3.2,2.5-6.3c-1.1-1.4-2-3-2-3.6c0-1.3,4.7-3.4,7.4-3.2
		c2.4,0.1,7.6,5,7.6,7.2c0,0.9,1,2.6,2.3,3.8l2.3,2.2l1.3-3.6c2.2-6.2,6.3-11.3,9.6-12.1C1479.1,937.9,1480.5,937.7,1481.8,937.7z"
		/>
	<path id="CA-NB" class="st0" d="M2029.6,1116.3c-2.3-0.6-5-3.7-6.7-7.5c-0.6-1.5-2.2-3-3.4-3.3c-4.1-1-10.5-17.7-10.5-27.4
		c0-3.3-0.6-5-2.3-6.6c-3.9-3.7-9.1-6.4-12.4-6.4l-3.2,0l-0.4-6.2c-0.2-3.4-0.2-6.6,0-7s3.1-0.8,6.6-0.8c7.4-0.1,11.4-1.4,15.6-5.2
		c1.9-1.7,5.9-3.5,10.5-4.8c6.9-1.9,7.7-1.9,11.2-0.5c3.6,1.5,3.8,1.5,5.7-0.6c4.1-4.4,15.7-7.8,15.7-4.7c0,0.7-0.7,2.4-1.5,3.8
		c-2.1,3.7-1.9,12.2,0.4,15.1c1,1.3,2.2,3.9,2.6,5.7c0.4,2,2.5,5,5.4,7.8c4.5,4.3,4.9,4.4,10.7,4.4c3.4,0,6.4,0.3,6.7,0.6
		c0.3,0.3-1.7,2.9-4.4,5.8c-2.7,2.8-6.1,7.6-7.5,10.5c-3.6,7.5-16.1,20.2-19.9,20.2c-2.2,0-3.2,0.7-4.1,2.8
		C2042.4,1115.9,2035.9,1117.9,2029.6,1116.3z"/>
	<g id="CA-NL">
		<path id="path2163" class="st0" d="M2141.1,1006.4c-2.8-3.5-2.7-7.8,0.2-11.7c3.1-4.2,3.4-9.3,0.7-10.2c-2.6-0.8-2.5-2.9,0.1-7.2
			c1.9-3.1,2.1-4.3,1.5-12.1c-1-14-0.7-30.4,0.9-46.7c0.1-1.1,0.5-5.6,1-10c0.9-9.2,2.7-12.6,9.9-18.1c3.9-3,5-3.4,6.2-2.3
			c3.7,3.1,4.5,6.7,4.1,18.9c-0.2,6.5-0.7,12.2-1,12.7c-0.3,0.5-0.8,3.6-1.2,6.9l-0.6,6l2.5-3c1.4-1.7,2.6-3.3,2.6-3.7
			c0.1-1.5,4.2-1.9,7.5-0.7c3.7,1.3,3.8,1.5,3.5,6.6l-0.2,3.2h5c2.8,0,5.3-0.4,5.6-0.9c0.3-0.5,2.7-1.5,5.3-2.2
			c2.6-0.7,7-2.4,9.8-3.6c5-2.3,9.5-2.4,13.6-0.2c2.2,1.1,3.2,6.5,1.6,8.9c-1,1.6-0.9,2.3,0.8,3.9c1.7,1.7,2.7,1.9,7,1.2
			c6.4-1,7.4-0.6,7.4,2.7c0,2.8-2.1,6.5-5.3,9.4c-1.1,1-1.4,1.8-0.8,1.8c0.6,0,1.2,1.5,1.2,3.4c0,1.9,0.3,4.1,0.6,5
			c0.7,1.8,2.4,2.1,2.4,0.4c0-1.9,5-7.8,6.5-7.8c0.8,0,1.9,1.8,2.6,4c1.4,4.6,2.7,4.9,6.9,1.8c1.6-1.2,3.3-1.8,3.7-1.4
			c0.4,0.4,0.9,3.8,1,7.4c0.1,3.7,0.3,8.3,0.4,10.4c0.2,5.4-3.8,11.2-8,11.6c-2.5,0.2-3.4-0.3-4.3-2.3c-1.4-3.2-2.1-3.2-3.8,0
			c-2.7,5.1-4.9,1.9-6.1-8.7c-0.9-7.8-2-10.8-4-10.8c-0.5,0-0.9,1.6-0.9,3.7c0,3-0.8,4.4-3.9,7.4c-3.6,3.4-4,4.4-4.9,11
			c-1.3,9.7-3.7,12.3-11.6,12.5c-6.8,0.2-7.3-1.4-2-6.4c2.9-2.7,3.5-4,3.5-7.3c0-3.7-0.1-3.9-2.1-2.8c-3.8,2-8.1,2.9-9.3,1.9
			c-1.2-1-2.9-0.2-13,5.8c-3,1.8-6.8,3.5-8.3,3.8c-1.5,0.2-4.3,0.7-6.2,1c-1.9,0.3-8,2.4-13.5,4.6c-5.5,2.2-10.6,4.2-11.2,4.5
			C2143.7,1008.9,2142.3,1007.9,2141.1,1006.4z"/>
		<path id="path2155" class="st0" d="M2016.8,934.5c-0.2-0.2-2-0.5-4.1-0.8s-4.7-1.3-5.7-2.2c-1.5-1.4-3.1-1.6-7.7-1.2
			c-7.3,0.6-8.1,0.3-8.8-3.5c-1.2-6.4-1.3-7.2-1.4-8.4c0-0.6-0.8-1.9-1.6-2.7c-1.4-1.4-1.9-1.3-4.8,0.4c-1.8,1.1-4.2,2-5.3,2
			c-2.5,0-6-3.5-4.5-4.5c1.1-0.7,1.4-6.7,0.5-10.2c-0.4-1.3-2.1-2.8-4.7-3.8c-7.4-2.9-15.1-14.9-12.6-19.6c0.6-1.1,1.5-2,2-2
			c1,0,2.8-3.8,3.3-7.3c0.2-1.1,1.3-2.7,2.4-3.6c1.2-0.9,2.6-2.8,3.1-4.3c0.9-2.5,1.2-2.6,5.3-1.7c2.4,0.5,5.4,1.7,6.8,2.7
			c3.5,2.4,7.2,1.7,9.5-1.9c1.9-2.9,2.2-3,7-2.3c2.8,0.4,5.8,0.7,6.8,0.6c1.4-0.1,1.7,0.6,1.4,3.4c-0.2,1.9-0.6,3.6-0.8,3.7
			c-4.4,3-7.9,6-8.3,7.4c-0.3,1-1.9,2.7-3.6,3.8c-3.5,2.3-3.7,3.5-1,6c2.4,2.2,8.3,1.4,10.3-1.3c2.3-3.3,7.4-5.1,11-4
			c4.7,1.4,8.3-0.3,10.4-4.9c1.8-3.9,2-9.1,0.4-10.6c-0.5-0.5-1.8,0-3,1.2c-1.3,1.3-3.4,2.1-5.5,2.1c-7.5,0-8.2-2-3.6-10.7
			c1.7-3.1,3-6.6,3-7.9c0-3-3.3-10.6-5.4-12.3c-0.9-0.7-1.6-2.1-1.6-3c0-2.8-5-11.5-8.2-14.3c-2.1-1.9-3.3-4-3.8-7
			c-0.4-2.4-1.3-7.2-1.9-10.8c-0.6-3.6-1.2-9.4-1.2-13c-0.1-7.5-1.9-11.6-5.7-12.4c-1.4-0.3-4.1-1.5-5.8-2.6
			c-3.6-2.3-4.2-5.2-1.7-8.8c1-1.5,1.2-2.9,0.6-4.5c-0.9-2.4-0.9-3.3,0.3-8.7c0.8-3.4,0.2-3.6-8.9-3.3c-2.2,0.1-3.7-0.1-3.4-0.4
			c0.3-0.3-0.2-3.8-1.2-7.8c-1.3-5.7-2.1-7.3-3.6-7.5c-1.1-0.2-2.4-1.1-3-2.1c-1.4-2.3-5.5-17.3-4.9-17.9c1-1,12.7,9.3,16.7,14.8
			c2.4,3.3,5.1,5.9,6,5.9s2.6,1.3,3.8,2.9c1.1,1.6,3.6,3.9,5.4,5c2.2,1.4,4.1,3.8,5.5,7.1c1.4,3.2,2.8,5,3.9,5
			c0.9,0,2.7,1.5,3.9,3.4c1.7,2.6,3.1,3.5,6.2,4c3.5,0.6,4.4,1.2,6.3,4.9c1.2,2.3,2.5,6,2.8,8.2c0.5,3.7,0.9,4,5.2,5.3
			c2.5,0.7,5.4,2.1,6.3,3.2c1.6,1.7,1.6,2.3,0.2,6.8c-1.2,4.1-1.2,5.3-0.1,7.3c0.7,1.3,1.6,3.6,1.9,4.9c0.5,2.2,2,3,11.3,6.3
			c5.9,2.1,11.6,3.8,12.6,3.8c1,0,3.5,1.9,5.6,4.1l3.8,4.1l8.9,0.4c4.9,0.2,10.6,1.1,12.7,1.9c3.9,1.5,6.3,0.9,9.4-2.1
			c1-1,2.8-0.8,8.5,0.8c4,1.1,7.6,2.4,7.9,2.9c1.3,2-0.4,5.7-3.1,6.8c-1.5,0.6-5.2,3.9-8.1,7.2c-2.9,3.3-6.7,7.5-8.3,9.2
			c-1.6,1.7-5.1,5.4-7.7,8.1c-4.8,5.1-7,11.1-4.4,12c2.1,0.8,12.4-10,13.1-13.8c0.4-2.4,3-5.9,8.3-11.6c6.9-7.4,8-8.2,11.4-8.2
			c3.1,0,4.1,0.6,6,3.3c1.9,2.8,2.7,3.2,4.8,2.6c4.7-1.3,9.7-0.9,12.1,0.9c1.3,1,5.1,3.4,8.4,5.2c3.3,1.8,6.1,3.4,6.3,3.5
			c0.2,0.1-0.3,1.4-0.9,2.8c-1.7,3.7,0.3,9.7,4.6,14c3.3,3.3,7.5,10.4,7.5,12.6c0,1.6-6.8,12.1-10.3,15.7l-3,3.2l-4.1-5.2
			c-2.2-2.9-4.5-5.5-5-5.9c-0.5-0.4-2.6,0.1-4.5,1.1s-5.9,2.3-8.8,3c-2.9,0.7-8.5,2.5-12.5,4c-4,1.5-12.2,4.7-18.3,7
			s-13.1,5.1-15.8,6.1c-9.5,4-30.3,11.2-34.2,11.8c-3.2,0.6-5.1,0.2-9.6-2c-3.1-1.5-6-2.4-6.6-2.1c-0.6,0.4-1.1,2.5-1.2,4.7
			c-0.2,4.9-1.2,13.9-1.7,14.4C2022,934.4,2017.2,934.9,2016.8,934.5z"/>
	</g>
	<g id="CA-NS">
		<path id="path2185" class="st0" d="M2063.7,1148.7c-5.8-1.3-8.7-4.6-11.1-12.8c-1.2-4.1-1.3-6.4-0.7-8.2
			c1.5-3.9,8.1-13.6,12.4-18.4c2.1-2.3,4.5-5.1,5.2-6.1s2.5-2.2,3.9-2.5c2.8-0.7,11.5-6.6,11.5-7.8c0-1-4.5,0.7-9.8,3.8
			c-9.2,5.4-7.9-3.4,2.2-14.9c4.5-5.1,5.5-5.8,8.6-5.7c9.5,0.3,20.2-1.4,23.7-3.8c2.2-1.5,4.2-2.1,5.2-1.7c0.9,0.4,3.7,0.8,6.2,0.9
			c5.3,0.2,9.4,2.5,11.1,6.2c1.1,2.3,0.7,3-5.3,8.9c-3.5,3.5-7.1,7.1-7.9,8c-3.6,3.8-12.4,10.5-14.4,11c-1.3,0.3-3.5,2.6-5.2,5.5
			c-2.7,4.6-3.2,4.9-6,4.5c-2.6-0.4-3.3,0-4.2,2c-0.6,1.4-1.1,2.9-1.1,3.5s-1.4,4.3-3,8.2c-2.3,5.5-4.6,8.9-9.5,13.9
			c-3.6,3.7-6.6,6.6-6.7,6.6C2068.6,1149.8,2066.3,1149.3,2063.7,1148.7z"/>
		<path id="path2177" class="st0" d="M2131,1072.7c-0.8-0.7-3.7-3.6-6.4-6.5c-3.6-3.8-4.6-5.6-3.8-6.5c0.6-0.7,2.4-5.4,4.1-10.5
			c3.4-10.3,6.7-17.2,8.1-17.2c1.8,0,4,4.5,4.1,8c0,5.7,1,7.8,3.8,8.5c3.5,0.9,8.2,5.4,8.2,7.9c0,1.1-1.4,4.2-3.1,6.8
			c-2.3,3.5-3.7,4.8-5.4,4.8c-1.4,0-3.1,1.1-4.5,3C2133.6,1074.3,2133.2,1074.5,2131,1072.7z"/>
	</g>
	<g id="CA-NT">
		<path id="path2147" class="st0" d="M1172.1,374.2c-1.7,0-4.1,0.3-7.6,0.7c-5.4,0.7-10.4,1.4-11.1,1.7c-1,0.4-1.2,1.9-0.8,5.3
			c0.6,5.6-0.7,7.1-3.1,3.5c-0.9-1.4-2-2.5-2.3-2.5c-1.7,0-16.2,26.3-19.1,34.5c-1.7,5-3.8,10-4.6,11.2c-2.3,3.5-1.7,4.5,4.8,9
			c14,9.5,14.4,10.5,8.6,22.3c-2,4.1-3.9,9.4-4.2,11.7c-0.4,3.9-0.2,4.4,3.4,7.3c2.1,1.7,3.7,3.5,3.4,3.9c-0.3,0.4-0.6,3.3-0.7,6.5
			c-0.2,6.2-1.4,8.2-5.5,9.2c-2.8,0.7-4.4,3.1-4.4,6.8c0,1.4-0.4,2.6-0.9,2.6s-1.2,1.2-1.5,2.6c-0.5,1.9-0.1,3.2,1.4,4.8
			c1.4,1.5,2.1,3.5,2.1,6.6c0,2.6,1,6.5,2.4,9.4c1.7,3.4,2.2,6,1.9,8.2c-0.4,2.2,0.1,4.6,1.5,7.2c2,3.9,2,4,0.2,9.9
			c-2.4,7.9-4.8,21.1-5.5,29.8c-0.3,3.8-0.8,7.9-1.1,9c-0.4,1.3,0.2,2.9,1.6,4.5c2.7,3.1,4.3,6.9,5.9,14c1.5,6.4,3.4,10.6,6.3,13.8
			l2.1,2.2l-2.2,2.3c-1.4,1.5-2.2,3.6-2.2,6.1c0,2.1-0.5,4.6-1.1,5.7c-0.9,1.8-0.4,2.3,5.2,4.8c3.5,1.6,8,4.1,10.2,5.5
			c3,2.1,4.5,2.5,7.2,2c4-0.8,3.8-1.8,3.8,14.4l0.1,12.3l11,4.4c35.7,14.4,77.8,28.8,118.5,40.4c11.8,3.4,28,8.1,36,10.5
			s15.8,4.6,17.5,4.9s9.8,1.9,18,3.6s16.2,3.3,17.8,3.5c1.5,0.3,7.4,1.4,13,2.5c5.6,1.1,11.6,2.2,13.2,2.5s9.3,1.8,17,3.4
			c15.8,3.2,21.4,3.7,21.6,1.8c0-0.7,0.2-2.1,0.4-3.1s0.6-5.8,1-10.5c0.4-4.7,0.8-9.8,1-11.1s0.6-5.4,0.9-9
			c0.9-10.2,2.5-26.5,3-31.5c0.2-1.7,0.6-7,1-12c0.4-5,0.8-9.7,1-10.5s0.6-5.3,1-10c0.3-4.7,1.1-12.2,1.6-16.8
			c0.5-4.6,0.7-8.7,0.4-9.2c-0.3-0.5-6.9-4.2-14.8-8.3c-16.6-8.7-33.6-17.7-46.2-24.4l-8.9-4.8l-6.2-10l-6.2-10l-11.3-2.4l-11.3-2.4
			l-9.7-13.1c-5.3-7.2-13.7-18.7-18.7-25.6c-4.9-6.9-14.7-20.3-21.7-29.8c-7-9.5-13.4-18.4-14.2-19.7c-1.4-2.2-1.3-3,2-11.7
			c12.3-32.6,12.3-32.4,6.1-40.6c-1.9-2.5-3.4-4.9-3.4-5.3s-0.5-0.8-1.1-0.8s-2.3-0.8-3.8-1.9c-1.5-1-4.5-2.1-6.7-2.3
			c-3.4-0.4-4.6,0-8.1,2.9c-3.6,2.9-4.5,3.2-6.8,2.3c-3.3-1.3-3.3-2,0.3-5.5c1.6-1.6,2.7-3.3,2.3-3.9s-0.7-3.4-0.7-6.3
			c0-8.7-1.4-8.7-10.1,0c-4.2,4.2-7.9,7.7-8.1,7.7c-0.7,0-3.8-3.3-3.9-4.2c-0.1-0.5-0.2-6.6-0.2-13.7c-0.1-12.7-0.2-12.8-2.7-14
			c-3.6-1.6-5.2-1.5-8.2,0.9c-1.9,1.5-3.8,2-7.4,1.8c-3.2-0.1-4.5-0.6-3.9-1.3c0.5-0.6,1.1-2.3,1.3-3.9c0.5-2.5,0-3-4.1-5.1
			c-4.6-2.3-11.9-2.8-18.1-1.3c-1.4,0.3-7.2,0.9-13,1.2c-7.6,0.4-10.7,1-11.3,2.1c-0.4,0.8-2.2,1.4-3.8,1.4c-2.8,0-2.9-0.2-2.9-4.2
			C1176,375.9,1175.8,374.3,1172.1,374.2z M1254.9,514.4c26,0.1,28.1,0.5,28.1,4.6c0,1-2.1,3.6-4.8,5.8c-3.2,2.7-4.4,4.4-3.8,5
			c1.2,1.2,15,6.8,21.8,8.8c4.7,1.4,4.8,1.5,4.1,4.7c-0.7,3.4-2.2,5.7-3.6,5.7c-0.5,0-2.7,1.2-4.8,2.6l-3.9,2.6l-5.8-2.7
			c-3.2-1.5-6.7-3.1-7.7-3.7c-2.5-1.3-3.9,0.3-6.1,6.9c-2,6.2-2.4,6.6-10.3,9.2c-3.4,1.2-6.7,2.1-7.2,2.1c-1.9,0-1.1-2.9,1.8-6.2
			c5.9-6.9,5.8-6.8,2.4-6.8c-1.8,0-4.3,1-6.1,2.6c-4.9,4.1-8.7,4.8-13.2,2.2c-2.1-1.2-4.3-3.3-5-4.7c-1.1-2.3-0.7-2.9,5.9-9.2
			c3.9-3.7,9.1-7.7,11.5-8.8c2.4-1.1,4.6-2.9,4.9-3.9c0.8-2.9-3.2-6-7.8-6.1c-2.2,0-6.8-1.1-10.3-2.2c-5.3-1.8-6.5-2.6-6.8-4.6
			c-0.2-1.3,0.1-2.7,0.7-3.1C1229.6,514.6,1241.3,514.4,1254.9,514.4z M1288.9,643c0.4,0,2.2,2.1,4.1,4.6s4.9,6,6.8,7.8
			c5.4,4.8,9.3,9.3,11.8,13.4c2,3.3,3,3.9,8.9,5.4c6.2,1.6,7,1.6,12.5,0c3.9-1.1,6.6-2.6,8-4.4c3-3.9,6.8-5.5,13.1-5.9
			c5.4-0.3,5.4-0.3,5.2,2.5c-0.3,4-4.2,8.5-8.6,9.7c-2.1,0.6-5.7,2.9-8,5.2s-7.2,5.4-10.8,7s-8.2,3.9-10.3,5
			c-2.2,1.2-4.9,1.8-6.3,1.5c-1.8-0.3-3.5,0.3-5.7,2.3c-1.7,1.5-4.9,3.5-7,4.4s-5.1,1.5-6.5,1.4c-18.5-1.7-20.2-2.3-29-10.5
			c-8-7.4-7.9-9.3,0.4-9.3c3.1,0,6.5,0.5,7.5,1c2.3,1.2,5,0.1,9.2-3.9c2.2-2.1,3.6-2.5,6.8-2.3c4.6,0.3,6.9-1.1,6.9-4.3
			c0-3-4.1-14.7-7.7-22.1C1287.6,645.8,1287.1,643,1288.9,643z"/>
		<path id="path2113" class="st0" d="M1395.5,451c-7.2-2.1-18.4-5.4-25-7.4s-15.6-4.6-20-5.8c-7.5-2.1-7.8-2.3-4.5-2.8
			c1.9-0.3,8.4-0.4,14.5-0.1c8.9,0.4,11.9,0.9,15.6,2.7c4.6,2.3,16.8,5.9,17.5,5.2c0.2-0.2-2.3-3-5.6-6.1c-6.2-6-11.1-8.6-15.8-8.6
			c-3.6,0-19.3-4.1-25.7-6.7c-4.6-1.9-5-2.3-6.7-7.9c-1-3.3-1.9-6.5-1.9-7.1c0-1.1,4.7-2.7,18-6.4l4.5-1.2l-3.5-0.8
			c-1.9-0.4-4.8-0.9-6.3-1.1c-3-0.3-6.3-4.8-5.3-7.4c0.3-0.8,0-1.7-0.7-2.2c-0.7-0.4-2-2-3-3.6c-2.4-3.7-1.5-7.4,2.8-11.9
			c4-4.2,5.5-6.9,5.5-9.5c0-5.1,14.8-13.2,29.6-16.2c5.4-1.1,11.9-2.3,14.5-2.6c4.5-0.6,4.7-0.5,5.7,2.4c1.2,3.6,0.1,9.3-2.9,15.2
			c-1.2,2.2-1.9,4.3-1.5,4.7c0.3,0.3,2.6-1.1,5.1-3.1l4.5-3.7l6.2,3.6c3.4,2,7.3,4.5,8.7,5.6l2.4,2.1l-2,4.8l-2,4.8l4.1-0.9
			c2.3-0.5,4.4-1.2,4.8-1.6c0.4-0.4,0-2.6-0.8-5c-0.8-2.4-1.3-4.4-1.2-4.6c4.2-2.7,5.8-3.4,6.2-2.8c0.5,0.9-21.2,88.4-22.2,89.4
			C1408.8,454.5,1402.7,453.1,1395.5,451z"/>
		<path id="path2105" class="st0" d="M1296.6,385.9c-0.3-0.7-0.9-5.2-1.5-10c-0.9-7.9-1.5-9.4-6.6-17.9c-3.1-5.1-5.5-9.8-5.5-10.4
			c0-1.6,3-4.9,6-6.8c1.4-0.9,5-5.6,8-10.4c3-4.9,6.3-9.8,7.4-10.9c1-1.1,5.2-6.4,9.3-11.8c7.1-9.4,7.4-10.1,7.5-15.5
			c0.1-3.1,0-6.3-0.1-7c-0.2-1.8,2.8-5.1,4.3-4.6c0.6,0.2,2.8,0.6,4.9,0.8c2,0.2,6.1,1.4,9,2.5s7.2,2.6,9.5,3.1
			c3.4,0.8,4.4,1.6,5.3,4.3c0.6,1.8,3.5,5.7,6.5,8.7c5.4,5.4,5.4,5.5,11.2,5.3c8.2-0.2,9.3,1,13.9,15.3c5.9,18.2,5.1,20-10,23.7
			c-7,1.7-13.9,4.7-15.6,6.8c-0.3,0.3-1.9,1.2-3.6,1.8c-1.7,0.7-4.2,2.2-5.5,3.4c-1.3,1.2-5.5,4.5-9.2,7.2c-5.4,4-7.4,6.4-10.3,11.7
			c-2,3.7-4.6,7.3-5.8,7.9c-1.2,0.6-2.2,1-2.2,0.9c0-0.3-1.2-0.1-8.5,1.6c-1.4,0.3-6,0.8-10.2,1.1
			C1298.8,387.1,1296.9,386.9,1296.6,385.9z"/>
		<path id="path2095" class="st0" d="M1412.6,310.9c-2.5-2.8-4.6-5.9-4.6-6.9c0-2.5,3.9-4.9,10.2-6.2c10.1-2.1,13.1-5.4,4.9-5.4
			c-3.3,0-4.6-0.5-6.1-2.5c-1.8-2.4-1.9-2.4-3.8-0.7c-2.4,2.1-8.1,2.8-10.9,1.3c-2.9-1.6-12.2-12.7-12.9-15.4
			c-0.7-2.5,1.9-6.2,4.3-6.2c0.7,0,1.4-0.3,1.4-0.8c0.3-3.1,1.1-4.8,3.4-7.2c1.4-1.5,2.6-3.6,2.6-4.7c0-2.7,5.7-9.4,8-9.4
			c1,0,2.5-1.1,3.5-2.5c1.4-2.1,2.4-2.5,6.5-2.5c6.4,0,10.1,2.8,10.1,7.6c0,2.8,0.6,3.8,3.8,5.9c5.1,3.4,7.5,8.5,7.7,16.4
			c0.2,7,1.6,9.1,6.4,9.1c4.9,0,5,0.7,1.7,14.2c-2.3,9.3-3.5,12.8-4.6,12.8c-0.8,0-4.1,1.8-7.2,4c-5.3,3.7-6.2,4-12.7,4h-7
			L1412.6,310.9z"/>
		<path id="path2085" class="st0" d="M1381.8,266.3c-1-0.2-2.2-2.1-2.7-4.1c-1.4-5,0.7-7.7,8.4-10.8c6.7-2.7,8.9-3,10.3-1.2
			c1.8,2.3,0.9,4.9-2.6,7.6c-1.9,1.5-5.1,4.1-7,5.9s-3.8,3.2-4.1,3.1C1383.7,266.8,1382.7,266.6,1381.8,266.3z"/>
		<path id="path2083" class="st0" d="M1372.6,249.4c-0.9-0.9-1.6-2.7-1.6-4c0-2.3-0.3-2.4-5.5-2.4c-8.9,0-11.8-4.4-7.2-11
			c1.6-2.4,3.5-3.6,6.8-4.5c2.5-0.6,6.7-2.4,9.3-3.8c2.6-1.5,5.2-2.4,5.6-2.2c0.5,0.3,4.1-2.5,8-6.2c9.2-8.6,10.7-9.4,18.3-9.2
			c3.4,0.1,7.3-0.1,8.7-0.3c3-0.5,7.5,1.5,8.4,3.8c1.9,5-0.2,10.6-5,13.3c-1.1,0.6-1.8,2.7-2.1,6c-0.5,4.8-0.8,5.3-4.8,7.7
			c-2.4,1.4-4.8,3.4-5.4,4.5c-1.3,2.5-4.7,3.5-6.6,2c-2.2-1.8-1.9-8.6,0.5-10.7c1.1-0.9,2-2.1,2-2.5c0-1.2-3.7,2-13.6,12
			C1378.8,251.4,1375.9,252.8,1372.6,249.4z"/>
		<path id="path2075" class="st0" d="M1450.3,222c-3.2-1.4-4.4-2.7-6.2-7c-1.2-2.9-2.2-5.9-2.2-6.6s-0.9-1.9-2.1-2.6
			c-5.4-3.3-7.7-12.8-3.1-12.8c2,0,5.1,3,5.1,4.9c0,0.9,0.9,1.1,3.2,0.6c4.2-0.9,21.6-1.8,23.3-1.1c1,0.4,1.1,1.5,0.3,4.8
			c-0.5,2.4-1.2,5.2-1.4,6.3c-1.5,7.6-2.8,11.6-4.5,13C1460.4,223.9,1455,224.1,1450.3,222z"/>
		<path id="path2067" class="st0" d="M1468,193.1c0-0.5-1.3-1.4-2.9-2.1c-1.6-0.7-3.7-2.1-4.7-3.2c-1.3-1.4-2.5-1.8-4.5-1.4
			c-1.5,0.3-3,0.1-3.4-0.4c-1.5-2.5,6-9.1,8.6-7.5c0.5,0.3,1.6,0.1,2.4-0.6c1.3-1,8.9-0.9,9.9,0.2c0.9,1-3.1,15.8-4.2,15.8
			C1468.6,194,1468,193.6,1468,193.1z"/>
	</g>
	<g id="CA-NU">
		<path id="path2117" class="st0" d="M1472.5,509.1c-4.9-1.2-12.3-5.4-17.6-10.2c-1.6-1.4-4.7-3.4-6.9-4.4c-2.2-1-4.1-2.4-4.1-3.2
			c-0.1-0.7-0.2-1.9-0.2-2.6c-0.2-2.2-4.4-2.1-5.1,0.2c-0.9,3-6,5.2-12.9,5.8c-3.3,0.3-6.6,1.1-7.3,1.8c-3,3-8.4,3.7-22.7,3
			c-21.2-1-27.6-2.1-27.7-4.8c0-0.7-0.2-3.1-0.5-5.3c-0.2-2.2-0.6-6.7-0.9-9.9c-0.5-6.8-2.3-9.2-7.6-10.1c-6-1-18-9.5-18-12.6
			c0-0.5-0.1-1.2-0.2-1.6s-1-4.4-2-8.8s-1.8-8.3-1.8-8.7c0-0.8,0.2-0.7,43.3,12.1c17,5,31,9,31.2,8.8c0.2-0.2,5.3-20.4,11.4-44.8
			c6.1-24.5,11.3-45.1,11.6-46c0.3-0.8,2.3,3,4.5,8.5c3.9,9.7,4,10.3,3.6,19.7c-0.5,11.4,0.6,14.5,4,11.1c1.7-1.7,2-3.1,1.7-9.4
			c-0.2-4.1-0.5-13-0.8-19.8l-0.5-12.4l3.2-3.3c3-3.1,3.4-3.3,7.1-2.4c2.3,0.5,4.9,2.1,6.3,3.7c2.3,2.7,2.3,2.7,0.8,0.2
			c-0.9-1.4-2-4-2.4-5.6c-1.2-4.2,2-7.9,7.9-9c5.3-1,9.3,0.8,13.4,6.2c3.8,4.9,2.8,9.1-4.1,17.6l-5.5,6.8l0.2,12.5
			c0.3,14,1.2,22.3,3.2,28.1c1.2,3.6,1.1,4.4-1.1,9.3c-1.7,3.9-2.2,6.3-1.8,8.9c0.9,5.5,7.2,13.7,16.4,21.4
			c10.6,8.8,14.3,15.6,12.1,21.9c-1,3-1.1,3-6.7,2.4c-3.1-0.3-6.1-1-6.6-1.5c-0.5-0.5-1.5-0.9-2.1-0.9c-2.6,0-2.2,3.3,1.1,8.5
			c5.5,8.6,4.4,14-3.7,17.8C1481,510.1,1477.6,510.3,1472.5,509.1z"/>
		<path id="path2157" class="st0" d="M1751.1,962.2c-5.1-2.1-6.1-2.8-6.1-4.9c0-2.7,0.5-3,7.4-3.8c4.6-0.5,5.1-0.3,7.8,2.7
			c3.7,4.1,3.5,8.1-0.4,8.3C1758.4,964.6,1754.5,963.6,1751.1,962.2z"/>
		<path id="path2151" class="st0" d="M1541.9,772.6c-0.2-0.2-4-0.7-8.4-1.1c-4.4-0.4-8.2-0.8-8.5-1c-0.3-0.2-4.1-0.6-8.5-1
			s-8.2-0.8-8.5-1c-0.3-0.2-3.4-0.6-7-0.9s-8.5-0.9-11-1.2c-9.4-1.1-12.8-1.4-24-2.5c-11.6-1.1-13.4-1.5-12.6-2.8
			c0.2-0.4,0.7-5,1.1-10.2c0.4-5.2,0.8-10.2,1-11s0.6-5.3,0.9-10s0.8-9.6,1.1-11c0.2-1.4,0.7-5.7,1-9.5c0.7-8.4,1.4-16.4,2-22.5
			c0.3-2.5,0.7-6.8,0.9-9.5c1.6-18,2-22.3,3.1-32c0.4-3.3,0.7-7,0.8-8.3c0.1-1.9-1.2-3-7.8-6.5c-10.1-5.4-28.7-15.2-43.5-23
			c-6.3-3.3-13.3-7-15.5-8.2c-3.9-2.1-5.9-4.7-13.6-17.1l-3.6-5.8l-11.4-2.4l-11.4-2.4l-5.6-7.6c-3.1-4.2-14.7-20.2-25.9-35.6
			s-23-31.6-26.2-35.9c-3.2-4.4-5.8-8.4-5.8-9c0-1,12.9-36.6,13.6-37.4c1.2-1.5,10.9,7.3,14.8,13.4c2.7,4.1,10,10.3,14.7,12.5
			c2,0.9,3.1,0.9,4.8,0c1.9-1,2.8-0.7,6.6,2.4c2.4,2,5.2,4.8,6.3,6.3c2.4,3.4,6.2,12,6.2,13.9c0,2.6-2.6,4.1-8,4.8
			c-5.4,0.7-10,2.9-10,4.8c0,0.6,1,2.5,2.2,4.3c1.9,2.7,3.7,3.7,12.2,6.3c15.8,4.8,18.8,5.3,26.1,4.1c3.5-0.6,7.6-1.6,9.1-2.2
			c2.4-1.1,2.8-1,4.3,1.2c0.9,1.3,4.3,6,7.6,10.3c7.8,10.2,10.4,15.3,9.8,19.1c-0.3,2.3-0.2,2.7,0.6,1.6c0.6-0.9,0.8-5.4,0.4-11.7
			l-0.6-10.2l10.6-5.3c6.1-3,10.7-6,11-7c0.4-1.6,0.2-1.6-3.7,0c-2.3,1-6.5,2.4-9.4,3.1c-4.9,1.2-5.4,1.2-8-0.7
			c-6.8-5-1.1-14.6,9.1-15.3c2.1-0.1,6.2-1,9-1.9s6.4-1.5,7.9-1.3c3.3,0.4,6,4.1,6.3,8.6c0.1,1.7,0.9,4.7,1.9,6.5
			c2.5,4.8,10.1,12.1,12.8,12.3c1.3,0.1,2.7,0.2,3.3,0.3c0.6,0.1,1.5,0.3,2.1,0.4c0.6,0.1,3,3,5.3,6.5l4.1,6.4l6.1,0.6
			c3.4,0.4,9.1,0.6,12.7,0.6s9.8,0.9,13.6,2s7,2,7,2c0,0,0.1-1.6,0.2-3.6c0.1-2,0.9-5.4,1.8-7.5c0.9-2.1,1.6-5.1,1.6-6.5
			c0-2.5,0.1-2.6,4.6-2c5.7,0.8,11.9,2.9,18.7,6.3c2.9,1.4,5.4,2.8,5.6,2.9c0.3,0.2-3.4,13.9-5.4,20.2c-0.2,0.7,0.7,1.7,1.9,2.2
			c1.3,0.5,2.9,2.4,3.6,4.2l1.3,3.3l0.7-3c0.4-1.9,0.1-4.1-0.8-6c-0.9-1.8-1.5-5.8-1.6-9.8c0-7.2,1-8.9,4.6-8
			c3.6,0.9,10.6-2.6,13.8-7c2.5-3.4,3-5.1,3-9.8c0-4.4-0.4-6.1-2-7.5c-2.3-2.1-2.8-9.3-0.8-11.3c1.7-1.7-4.4-7.3-10.1-9.1
			c-3.4-1.1-5-2.5-7.8-6.9c-3-4.7-3.5-6.3-3.5-11.3c0-3.2,0.5-6.7,1.1-7.8c0.8-1.5,0.5-3.3-1.6-8.2l-2.7-6.2l1.9-5.6
			c1.6-4.7,2.6-6,6.1-7.9c3.9-2.1,4.1-2.5,3.1-4.7c-0.9-2-0.6-2.9,2.3-6.5c7.8-9.7,7.1-9.1,10.7-8.4c2.3,0.5,3.7,1.5,4.5,3.4
			c0.6,1.5,2.8,4.2,4.9,6c6.8,6,7.8,8.1,8.2,17.8c0.3,8.5,0.5,9,5.5,17.3c6.2,10.4,6.9,16,1.7,14c-2-0.8-2.2-0.6-1.8,2.2
			c0.2,1.7-0.2,4.8-0.9,7c-1.2,3.8-1.2,4.1,0.9,5.8c1.8,1.5,2.8,1.6,5.9,0.8c3.8-1.1,7.2-0.4,14.8,2.8c3.2,1.3,3.5,1.8,2.3,2.9
			c-0.8,0.7-3.4,1.6-5.9,2c-7,1-7.6,2.6-2.9,9.4c3.7,5.4,4.5,8.1,4.9,16.1c0.2,4.3,1.8,0.2,2.5-6.5c1.2-10.4,2.5-13.6,6.5-15.2
			l3.5-1.5l6.7,7.4c4.7,5.1,7,8.6,7.8,11.5c1.6,6.3,1.3,10.1-0.9,12.3c-1.1,1.1-2,3.3-2,4.9c0,2.9,1.8,9.3,2.9,10.1
			c0.3,0.3,2.1,2.9,3.9,5.8c1.8,2.9,3.6,5.2,4,5.2c1.5,0,5.3-3.4,6.1-5.5c0.5-1.2,1.1-4.9,1.5-8.1c0.3-3.2,1.2-7.2,2-8.9
			s2.3-6.2,3.4-10.1c1.1-3.9,3.4-9.1,5-11.5c3.6-5.3,3.8-7.5,0.9-10.6c-2.4-2.5-5.3-14.5-4.3-17.8c1.3-4.3,3.4-5.6,9.1-5.6
			c4,0,6.7,0.7,11,3c3.1,1.6,6.5,3,7.6,3s3.4,1.5,5.2,3.4c1.8,1.9,5.2,4.4,7.5,5.6c4.2,2.1,7.9,5.6,8,7.4c0,0.5-0.7,1.4-1.6,2.1
			c-1.5,1.1-1.5,1.4,0.4,4.1c1.2,1.6,2.4,4.5,2.7,6.5c0.6,3.4,0.4,3.7-2.4,4.7c-1.7,0.6-3.5,2-4.1,3.1c-0.6,1.1-2,2.1-3.1,2.1
			c-2.7,0-2.5,1.9,0.5,5.4c1.4,1.6,2.8,4.4,3.1,6.2c0.4,2.2,1.7,4.1,3.9,5.5c7.1,4.9,7.1,14.9,0,27c-8.4,14.3-9,15-13.3,14.5
			c-2.1-0.2-5-1.2-6.5-2.1l-2.6-1.7l1.6,3.8c1.7,4.2,0.7,6-3,4.8c-3.7-1.2-5.2-1.1-6.7,0.3c-1.4,1.2-2.1,1.2-5,0
			c-1.9-0.8-4.1-2.4-4.9-3.6c-1.3-1.8-2.1-2-5.5-1.5c-2.2,0.4-4.8,1.1-5.8,1.6c-1.6,0.8-1.4,1.3,1.8,4.3c3.4,3.2,3.6,3.7,2.9,7.6
			c-0.5,3-2.2,6-6.1,10.5c-2.9,3.5-5.6,7.5-6,8.8c-0.3,1.4-1.1,2.5-1.8,2.5c-0.6,0,0.1,1,1.7,2.3c2.4,1.9,2.8,2.9,2.5,6.2
			c-0.2,2.2-1,5.1-1.9,6.5c-0.9,1.4-2.5,3.8-3.6,5.5s-4,6.5-6.4,10.7c-5.1,8.8-6.7,9.8-16.4,9.8c-7.2,0-9.2,1.4-9.7,7
			c-0.3,3.4-0.4,3.5-4.8,3.4c-2.5,0-5.7-0.3-7.2-0.7c-4-0.9-4.3,0.8-0.5,3.3c1.8,1.2,3.4,2.4,3.6,2.5c1,0.8,1.2,8.7,0.2,11.7
			c-1.3,4-5,5.9-12,6.2c-7.9,0.3-7.5,0.2-5.8,2.7c1.4,2.1,1.3,2.5-2.1,5.8c-5.1,4.9-10.9,12.6-13.6,18c-1.3,2.5-3.3,5.4-4.5,6.5
			c-2.6,2.4-5,6.7-5,9.2c0,1-2.3,6.7-5.2,12.7c-4.3,9.2-5.2,11.8-5.1,16.3l0.1,5.3h-4.3C1544.3,773,1542.1,772.8,1541.9,772.6z"/>
		<path id="path2141" class="st0" d="M1743.9,717.3c-5.3-3.3-5.1-13.1,0.4-19.1c2.2-2.4,4.8-2.3,8,0.5c3.2,2.8,1.6,14.4-2.5,18.2
			C1747.2,719.4,1747.2,719.4,1743.9,717.3z"/>
		<path id="path2139" class="st0" d="M1692.1,706.1c-2.3-4.3,1-14.2,5.8-17.5c3.9-2.7,5-2.9,12.7-2.7c4.7,0.1,5.2,0.4,6.4,3.1
			c1.1,2.7,1,3.4-1.9,7.9c-4.2,6.5-10.1,10.4-16.7,10.9C1693.9,708.2,1693,707.9,1692.1,706.1z"/>
		<path id="path2137" class="st0" d="M1669.8,684.2c-1.4-0.3-1.8-1.4-1.8-5.1c0-2.6-0.5-5.3-1.2-5.9c-0.7-0.7-3.7-1.2-6.8-1.3
			c-11.8-0.2-13.6-2.8-7.1-9.9c3.8-4.1,4.4-5.9,4.3-11.5c-0.6-19.6,0-25.9,3.9-41.2c1.2-4.8,1.6-5.2,4.8-5.8c3-0.6,3.8-0.3,5.8,2.2
			c1.2,1.6,3.1,4.7,4,7.1c1.5,3.6,2.2,4.3,4.8,4.3c2,0,5.9,2.1,11.5,6c4.7,3.3,11.3,7.9,14.7,10.2c3.4,2.3,6.2,4.9,6.3,5.8
			c0,0.8,1.1,3.3,2.5,5.5s2.5,4.8,2.5,5.8c0,1.5,0.7,1.7,5.3,1.2c4.7-0.5,5.6-0.3,8.9,2.2c3.2,2.5,3.6,3.3,3.4,6.3
			c-0.5,5.2-1.2,6.3-5.3,8.6c-3.7,2.1-3.7,2.1-8.2,0.2c-2.9-1.3-5.8-1.8-8.2-1.5c-2.9,0.4-4.1,0-5.8-1.8c-1.2-1.3-2-3.1-1.8-4.1
			c0.5-2.6-8.5-7.2-10.7-5.5c-0.8,0.7-1.5,2.3-1.5,3.6c0,3.6-1.8,7.5-4.8,10.5c-1.5,1.5-3.7,4-4.9,5.6c-3.1,4.2-7,8.3-8,8.4
			C1673.8,684.5,1671.3,684.6,1669.8,684.2z"/>
		<path id="path2121" class="st0" d="M1538.4,526.7c-3.4-1.1-7.6-3.9-11.9-7.9c-1.7-1.5-3.4-2.8-3.8-2.8c-2,0-6.7-4.3-6.7-6.1
			c0-2.5,15.9-23.9,17.7-23.9c2.5,0,11.7,9.7,14.4,15.2c4.1,8.3,6.9,16.1,6.9,19.1c0,2-1,3.3-3.8,5.3
			C1547.2,528.1,1543.9,528.4,1538.4,526.7z"/>
		<path id="path2133" class="st0" d="M1909.7,677.4c-0.2-0.2-6.5-0.6-14.1-0.9c-10.8-0.5-14.2-1-15.8-2.3c-1.2-0.9-3.5-2.9-5.3-4.4
			c-2.7-2.3-4-2.6-8.1-2.4c-5.5,0.3-8.7-0.6-19.2-5.5c-6.3-2.9-7.2-3.7-8.4-7.2c-1.1-3.5-1.1-4,0.4-4.9c1.9-1,2.3-2.8,0.7-2.8
			c-0.6,0-3.3-1.5-6-3.4c-2.7-1.9-6.3-3.7-8-4.1c-1.9-0.4-3.6-1.7-4.5-3.5c-2.2-4.3-7.3-7.4-13-8c-4.2-0.4-5.3-0.2-7.2,1.7
			c-1.6,1.6-3.4,2.2-6.6,2.2c-3.7,0-5,0.6-8.6,4l-4.3,4h-8.3c-13.8,0-16.9-2.5-18.2-14.8c-0.5-4.3-0.2-5,2.6-7.6
			c2.4-2.3,3.1-3.8,3.1-6.7c0-2.6,0.6-4.1,1.8-4.7c1-0.5,7.1-1,13.6-1.1c10.8-0.1,12.2-0.4,15-2.5c4.4-3.3,9.2-5.6,11.7-5.6
			c1.8,0,2-0.4,1.5-2.2c-0.8-2.6-1.4-5-1.5-5.9c0-0.3-1.9-1.8-4.2-3.3c-3.9-2.6-4.1-3-3.6-6.6c0.3-2.1,1.2-5.1,2-6.7
			c0.8-1.5,3.8-7.4,6.6-13l5.2-10.2l-2-7.1c-1.9-6.7-7.7-16-12.6-20.1c-1-0.8-2.8-3.1-4.1-5.2c-1.4-2.2-4.5-5-7.3-6.5
			c-3.9-2.2-5.1-3.4-5.8-6.2c-0.8-3.1-1.1-3.5-3.8-3.2c-1.6,0.2-3.6,0.9-4.5,1.6c-0.8,0.7-3.4,2.2-5.7,3.4c-3.6,1.8-4.3,1.9-5.3,0.7
			c-1.7-2-0.3-5.5,3.3-8.7c3-2.7,3.1-2.8,1.1-4.2c-2.5-1.9-3.9-1.9-7.6,0c-3.9,2-5.9,1.2-5.9-2.4c0-1.9,0.7-3.2,2-3.8
			c1.9-0.8,1.7-1.2-2.8-5.6c-8.1-7.9-12.7-11.6-14-11.1c-0.7,0.2-1.2,2-1.2,3.9v3.4l-10.2,0.2c-5.6,0.1-13.2,0.2-16.9,0.1
			c-5.6-0.1-6.6,0.1-6.5,1.5c0.1,1.4-1.1,1.6-8.4,1.5c-4.7-0.1-13.2-0.5-19-0.9c-6.4-0.5-11.9-0.4-14.1,0.2
			c-4.4,1.2-7.8-0.8-9.5-5.9c-1-2.9-1.6-3.3-4-3.1c-11.8,1-12.4,1-15.4-1.2c-6.6-4.9-12-12.7-12-17.4c0-1.5,1-2,4.6-2.5
			c2.6-0.3,6.5-0.6,8.7-0.6c3.5,0,3.9-0.2,2.6-1.4c-2.2-2-7.7-3.6-12.5-3.6c-3.1,0-4.4-0.5-5-1.8c-1.8-4.3-3.2-12.7-2.9-17
			c1.3-20.6,1.6-22.9,5.9-35.4c6.2-18.2,10.9-26.6,16.5-30c8.9-5.3,23.4-3.8,25.1,2.6c0.7,2.5,0.3,3.5-2.6,6.7
			c-2,2.2-3.7,5.4-4.1,7.6c-0.4,2.1-1.4,4.8-2.2,6.1c-1.8,2.8-4.3,13.2-3.5,14.5c0.3,0.5,0.7,4.3,0.9,8.3c0.3,8.2,0.8,9.4,3.4,9.4
			c1.2,0,2.1-1,2.5-2.8c0.4-1.5,1.4-3.6,2.3-4.6c1.3-1.5,1.4-2.1,0.4-3.5c-2.5-3.5-3.6-6.8-3.6-11.5c-0.1-3.7,0.4-5.2,2-6.5
			c1.1-0.9,2.4-2.4,2.7-3.4c0.4-1,1.1-1.8,1.7-1.8s1-0.9,1-2c0-3.6,7.6-14.4,11.8-16.7c4.4-2.5,14-4.3,17-3.2
			c1.8,0.7,3.5,3.2,9.6,14.4c3.8,7.1,6.7,14.8,6.1,16.9c-0.7,2.8,3,7.6,5.9,7.6c1.2,0,3.9-0.5,6-1.1c3.1-0.9,3.7-1.4,3.2-3
			c-1.1-3.4,5-8.3,12.1-9.8c5.6-1.2,6.3-1.1,9.5,0.8c1.9,1.2,4.6,2.1,5.9,2.1c3.1,0,7.5,3.7,8.5,7c1,3.4,3.4,6,5.6,6
			c1.3,0,1.9,1.1,2.4,4c0.4,2.2,1.1,4,1.5,4c0.5,0,3.4,2.5,6.4,5.5c4.6,4.5,5.7,5.2,6.1,3.8c0.3-1,1.2-3.2,2-5
			c1.6-3.6,2.5-3.7,11.2-0.6c3.6,1.3,4.6,2.2,6.4,6.5c1.2,2.9,3.3,5.6,4.9,6.6c1.5,0.9,3.3,2.6,3.9,3.8c2.1,3.9,4.5,4.7,7.5,2.4
			c3.2-2.5,5.6-2,11.5,2.2c3.7,2.7,4.2,3.5,3.6,5.8c-1.7,6.9-1.8,8.3-0.4,8c0.8-0.2,2.1-1.5,3.1-3c2.5-4,5.6-3.5,10.4,1.5
			c4.6,4.8,6.7,8.3,6.9,11.2c0.3,5.6,0.6,6.2,3.9,7.8c1.9,0.9,4.2,3,5,4.6l1.5,3l-4.6,2.7c-3.8,2.2-5,2.5-6.9,1.6
			c-3.1-1.4-3.8-0.5-1.9,2.4c1.5,2.3,1.5,6.4-0.2,10.5c-0.9,2.2,2.5,5.2,7.4,6.7c2.1,0.6,5.6,2.3,7.7,3.8c2.1,1.5,5.5,2.7,7.4,2.8
			s4.6,0.6,6,1.2s5.1,0.8,8.3,0.6l5.8-0.4l5.4,5.6c4.7,4.9,5.9,5.6,9.5,5.7c2.2,0.1,4.6,0.2,5.3,0.2c0.7,0.1,1.5,1.6,1.9,3.4
			c0.4,1.8,1,3.6,1.3,4s3.8-0.4,7.6-1.8l6.9-2.4l3.8,2.1c3.5,2,3.8,2.5,4.1,7.4c0.4,6.5-0.2,8.8-2.8,11.8c-1.9,2.2-1.9,2.5-0.4,4.2
			c1.3,1.5,1.5,2.3,0.6,4.3c-0.6,1.3-0.9,4-0.5,5.9c0.7,4.5-2.6,9.6-6.3,9.6c-2.1,0-2.4,0.3-1.8,2.2c1.1,3.5,4.3,9.5,5.4,10.2
			c2.1,1.3,0.9,3.4-3.1,5.3c-4.1,2-4.2,2-7.6,0.2c-1.9-1-5.7-2.4-8.4-3.1c-4.2-1.1-5.4-2-8.3-6.4c-3.8-5.8-10.8-12.5-13-12.5
			c-0.8,0-2-0.6-2.7-1.3c-4-4-10.8-6.4-10.8-3.9c0,0.5-1.2,1.4-2.6,2l-2.6,1.2l2.7,2.8c3.2,3.4,3.2,7.9,0,9.6
			c-1.6,0.8-1.9,1.5-1.3,3c0.4,1.1,0.8,1.6,0.8,1.2c0.1-1.2,7.3,2.2,8.7,4.1c0.7,1,3.1,3.8,5.3,6.3c3.9,4.4,5.3,5.1,15.7,7.8
			c3.1,0.8,4.3,1.7,4.8,3.5c0.3,1.4,1.5,2.9,2.6,3.5c1.1,0.6,3.1,2.8,4.5,5c1.4,2.1,5.6,7.1,9.5,11.1l7.1,7.2l-0.2,13.9
			c-0.1,7.7-0.5,14.1-0.9,14.4c-1.1,0.7-19.2-5.1-28.9-9.2c-4.7-2-9.9-4.8-11.6-6.3c-2.9-2.5-5.7-3-11.7-2.1c-1.7,0.2-0.6,1.9,2,3
			c1.5,0.6,3.6,2.7,4.6,4.5c1.5,2.8,3.2,3.9,9.5,6.3c4.2,1.6,12.5,6,18.4,9.9l10.8,6.9l-0.3,6l-0.3,6l-5.7,0.1
			C1912.7,677.7,1909.9,677.6,1909.7,677.4z"/>
		<path id="path2131" class="st0" d="M1764.3,673.7c-3.8-2.5-4.9-5.2-3.2-7.2c1.7-2,3.6-1.8,7.1,0.6c3.1,2.2,3.8,5.6,1.7,7.7
			C1768.3,676.3,1768.1,676.3,1764.3,673.7z"/>
		<path id="path2129" class="st0" d="M1775.2,662.3c-1.8-0.3-2.2-1-2-3.1c0.2-2,0.9-2.7,2.9-3c3.4-0.4,7.3,2.7,6.4,5.1
			C1781.8,663,1780,663.2,1775.2,662.3z"/>
		<path id="path2127" class="st0" d="M1759,551.2c-6.7-6.7-4.5-27.5,3.5-32.8c3.6-2.3,9-1.1,12.6,2.9c2.8,3.1,2.9,3.4,2.9,14.3
			c0,12.4-0.4,13.3-8.2,16.8C1764.7,554.7,1762.3,554.4,1759,551.2z"/>
		<path id="path2123" class="st0" d="M1786.5,532.8c-3-1.4-5.5-5.2-4.5-6.8c1.2-1.9,9.1-1.4,10.7,0.8c1.9,2.5,1.5,4.1-1.5,5.6
			C1789.4,533.3,1787.9,533.5,1786.5,532.8z"/>
		<path id="path2115" class="st0" d="M1726.7,506.3c-1-1-0.8-1.6,1.7-4.6c1.5-1.7,2.6-4.7,3-7.9c0.7-4.9,3-9.9,4.6-9.9
			c1.5,0,2,3.2,0.8,5.3c-0.6,1.2-1.1,3.7-1,5.4C1736.2,500.2,1729.3,508.9,1726.7,506.3z"/>
		<path id="path2111" class="st0" d="M1522.3,434.9c-2.6-2.1-4.7-4.7-4.8-5.7c-0.9-10.8-2.5-13.5-11.6-19.7
			c-1.7-1.2-4.6-4.9-6.3-8.1c-3.1-5.8-3.1-6.1-1.8-10.5c0.8-2.5,2.5-5.3,3.9-6.3c2.4-1.8,2.5-1.8,7.8,2.2c5.1,3.9,5.4,4,7,2.2
			c0.9-1,2.1-3.5,2.7-5.6c0.9-3.2,0.7-4-0.9-5.9c-4.8-5.2-6-8.5-4.9-13.4c1.1-5.4,4.2-10.2,6.4-10.2c0.9,0,3.9,1.4,6.8,3
			c4.5,2.6,5.4,2.8,6.5,1.6c2.5-3,13.4-5.3,15.8-3.3c0.7,0.6,1.2,3.3,1.2,6.3c0,4.1-0.4,5.4-1.8,5.9c-1.7,0.6-1.7,0.7,0,2
			c2.6,1.9,2.2,3-2.8,8.6c-2.5,2.8-4.5,5.5-4.5,6.1c0,0.6,1.3,1.5,3,2.1c2.3,0.8,3,1.7,3,3.7c0,1.5,0.7,3.8,1.5,5.2
			c3,5.2,3.7,7.7,4.2,14.7c0.4,6.4,0.2,7.6-2,11.1c-2.6,4.1-8.1,8.2-11,8.2c-0.9,0-1.4,0.4-1.1,0.9c1,1.6-4.1,6.7-7.9,7.8
			C1527.2,438.8,1526.7,438.6,1522.3,434.9z"/>
		<path id="path2107" class="st0" d="M1563.6,415.9c-2.1-1.7-2.6-2.9-2.6-6.4c0-2.4-0.5-5.6-1-7.1c-2.4-6.2-0.5-29.1,3-37
			c1.2-2.6,2.4-6.5,2.7-8.5c0.8-5.3,3.9-7,15-8.5c3-0.4,5.2,0,8.2,1.5c2.2,1.1,5,2.1,6.2,2.1c2.9,0,8.8,2.6,12.7,5.6
			c3.3,2.5,3.3,2.5,1.7,5.7c-0.9,1.8-2.3,3.9-3,4.8c-0.8,0.9-1.7,2.9-1.9,4.5c-0.3,1.6-2,5.1-3.9,7.9c-1.9,2.8-3.9,7.6-4.6,10.9
			c-0.7,3.2-1.7,6-2.3,6.2c-0.6,0.2-4,0.6-7.5,0.9s-6.8,0.9-7.2,1.3c-0.6,0.6-1.5,7.8-1.8,14c-0.1,1.6-5.3,4.3-8.4,4.3
			C1567.4,418,1565.1,417.1,1563.6,415.9z"/>
		<path id="path2103" class="st0" d="M1708.2,382.8c-4.6-7.5-11.3-21.9-10.8-23.3c0.9-2.3,21-2,25.2,0.3
			c5.7,3.1,12.9,10.6,16.2,16.9c2,3.7-0.9,5.5-8.4,5.2c-4.8-0.2-7.2,0.3-10.4,1.9C1714,387,1710.6,386.7,1708.2,382.8z"/>
		<path id="path2099" class="st0" d="M1608.5,335.5c-2.2-1.4-5.4-2.5-7.1-2.5c-5.1,0-6.6-1.9-7-8.8c-0.2-3.4-0.8-7-1.3-8
			c-1.6-2.9-2.2-12.3-0.9-14.5c0.6-1.1,1.2-4.6,1.3-7.6c0.2-4.7-0.2-6.1-2.5-9.1c-1.5-1.9-2.9-4.4-3.1-5.5c-0.3-1.7-1.4-2.1-7.8-2.6
			c-4.1-0.3-8.2-0.9-9.1-1.3c-2.3-1-11.5-12.6-12.1-15.4c-0.3-1.3-0.1-3.8,0.4-5.7c1.1-4.2,3.6-5,11.5-4.1c8.3,1,13.2,4.1,14.8,9.4
			c0.8,2.7,3.4,3.4,10.1,2.9c8-0.6,11.5,1.3,11.5,6.4c0,1.8,0.8,2.9,2.5,3.7c3.8,1.7,4.9,5,3.2,9.8c-1.4,4.1-1.4,4.1,1.9,7.3
			c1.8,1.8,3.3,4.3,3.3,5.5c0,1.9,0.7,2.3,4.2,2.9c2.3,0.3,8.1,1.4,12.8,2.3l8.5,1.7l5.6-2.7c3.1-1.5,6.1-2.7,6.7-2.7s3-1.6,5.3-3.5
			c4.2-3.5,4.4-3.5,12.3-3.4c9.4,0.2,12.2,1,19.1,5.5c8.3,5.4,12.7,12.8,9.5,16c-0.7,0.7-0.6,2.1,0.2,4.1c1,2.6,0.9,3.4-0.4,5
			c-0.9,1-1.8,3.4-2,5.3c-0.3,3-1,3.8-5.2,5.9c-8.3,4.1-20.4,4.1-22.3-0.1c-0.8-1.8-1.2-1.9-2.4-0.7c-0.8,0.8-3.5,2.4-6,3.6
			c-3.9,1.9-6.5,2.3-19.5,2.6c-16,0.4-19.7-0.4-21-4.3c-0.9-2.7-1.6-2.6-5.5,1.5c-1.9,1.9-3.9,3.5-4.4,3.5
			C1613,338,1610.7,336.8,1608.5,335.5z"/>
		<path id="path2097" class="st0" d="M1574.5,332.3c-2.1-0.5-13.1-8-15.9-10.8c-2.4-2.4-1.9-5.6,2.3-13.6c3.4-6.3,4.5-7.5,7.8-8.7
			c4.5-1.6,9.3-0.5,13.6,3.1c2.6,2.2,2.8,2.8,3.4,13.9c0.7,11.6,0.7,11.7-1.9,14.2C1581.2,332.9,1578.9,333.4,1574.5,332.3z"/>
		<path id="path2093" class="st0" d="M1535.3,313.9c-4.6-2.1-9.3-7.1-9.3-9.8c0-0.9,1.4-3,3.2-4.5l3.2-2.8l-9.3,0.3
			c-10.5,0.3-12.1-0.5-12.1-6.9c0-4.8-1.3-6.6-7-10.1c-2.8-1.7-5-3.4-5-3.7c0-0.3,0.8-1.9,1.7-3.5c1.6-2.7,2-2.8,6.2-2.3
			c5.4,0.7,8.1,1.9,8.1,3.7c0,0.7,2,3.4,4.5,6c3.3,3.5,5.2,4.7,7.4,4.7c2.6,0,3-0.4,3.3-3.6c0.5-3.9-1-5.9-6.5-9.2
			c-1.5-0.9-2.8-2.2-2.8-2.9s2.2-3,5-5.2c3.7-2.9,5.7-3.8,7.8-3.5c1.5,0.2,5.2,0.6,8.2,0.9c3,0.3,6.5,1.2,7.8,2.1l2.4,1.6l-0.6,18.5
			c-0.3,11-1,19.1-1.6,19.8c-0.6,0.8-0.8,2.8-0.4,4.8c1,5.4-0.8,7.7-5.8,7.6C1541.4,315.9,1537.6,315,1535.3,313.9z"/>
		<path id="path2091" class="st0" d="M1462.6,307.6c-4.1-2.5-6.8-2.6-9.5-0.1c-0.9,0.8-2.2,1.2-2.8,0.8c-1.5-1,3.9-23.8,5.6-23.4
			c0.7,0.2,1.1-1.6,1.1-5.1c0-6.7,4.7-30.4,6.6-33.4c3-4.6,10.8-0.8,8.2,4c-0.7,1.3-0.7,2.7-0.1,4.1c1.1,2.4,0.7,8.8-0.6,11.4
			c-0.5,1-0.8,3.5-0.8,5.7c0.1,3.4,0.4,4,2.5,4.3c1.3,0.2,4.4-0.2,6.8-0.9c4-1.1,4.6-1.1,6.3,0.7c3.7,3.7,4.6,17.6,1.4,21.8
			c-0.8,1.1-2.4,3.5-3.6,5.3C1479.2,310,1470,312.1,1462.6,307.6z"/>
		<path id="path2089" class="st0" d="M1490,307.4c-0.7-1.9-0.5-3.2,0.7-5.2c0.9-1.5,1.7-2.8,1.8-2.9c0-0.1,1.5-0.4,3.3-0.8
			c3-0.5,3.3-0.3,5.2,4.1c1.3,2.8,1.7,5,1.2,5.6c-0.5,0.5-3.2,1.1-6.1,1.3C1491.3,309.9,1490.8,309.7,1490,307.4z"/>
		<path id="path2087" class="st0" d="M1684.5,276c-0.3-1.1-0.4-2.4-0.1-2.8c0.8-1.2-0.6-2.8-3.8-4.5c-2.8-1.5-3.1-1.4-5.3,1
			c-1.7,1.8-2.9,2.3-4.5,1.8c-1.2-0.4-3.3-0.9-4.7-1.2s-3.5-1.7-4.7-3.1c-1.8-2.2-2.4-2.4-3.8-1.3c-0.9,0.7-1.6,2.5-1.6,3.9
			c0,3.4-3.2,5.5-7.2,4.6c-1.7-0.4-8.6-0.7-15.4-0.8c-10.8-0.1-12.7-0.4-15.1-2.2c-2.4-1.8-2.9-2.9-3.1-7.7
			c-0.2-3.7,0.2-6.7,1.3-8.6c2.4-4.6,8.3-10.1,10.9-10.1c4.3,0,4.9-2.3,1.5-5.6c-5.6-5.3-7.3-10.9-4.7-15.7c1.7-3.2,2.8-3.7,8.4-3.7
			c6.1,0,10.1,2.9,11.6,8.5c0.6,2,2.1,4.8,3.4,6.1c2,2,2.8,2.2,4.4,1.3c1.9-1,1.8-1.3-2.4-5.7c-2.4-2.5-5-5.9-5.6-7.5
			c-1.1-2.6-0.9-3.3,1.5-6.4l2.7-3.5h-6.8c-8.5,0-11.3-1.6-11.3-6.6c0-1.9,0.9-5.3,2.1-7.5c1.1-2.2,1.8-4.3,1.5-4.6
			c-1.6-1.6,2.9-6.3,8.9-9.4l6.6-3.4l6.6,3.5c8.4,4.4,7.9,4.3,8,2.8c0-0.7,0.4-2.1,0.8-3c0.4-1,0.3-1.8-0.1-1.8
			c-0.5-0.1-2.2-0.2-3.8-0.4c-4.1-0.4-10.9-8-13.2-14.7c-1-2.9-3.3-7.3-5.1-9.7s-3.3-4.7-3.3-5.2c0-0.4-0.9-1.1-1.9-1.4
			c-2.8-0.9-3.9-5.3-3.2-12.8c0.9-8.7,1.9-9.8,8.3-9.2c6.7,0.6,8.5,1.9,15.8,11.5c3.4,4.4,6.3,7.9,6.5,7.8c1.1-1.1-1.6-7.2-4.8-10.9
			c-5-5.6-4.8-8.7,0.8-11.5c2.2-1.1,5.8-3.3,8-4.8c2.2-1.5,4.8-2.7,5.8-2.7c1.1,0,1.8-0.8,1.8-2c0-1.1,1.8-3.8,4.1-6l4.1-4l-2.6-3.1
			c-1.4-1.7-2.6-3.8-2.6-4.7c0-0.9-1.1,0.4-2.3,2.8c-6.2,12.2-11,16.4-18.5,16.6c-2.6,0-7.2,0.7-10.4,1.5
			c-7.9,1.9-11.2,0.7-11.6-4.2c-0.2-2,0.4-5.3,1.2-7.2s1.2-3.6,0.9-3.6c-1.1,0-4.3,4.3-4.3,5.7c0,0.8-1.1,2.5-2.6,3.8
			c-2.1,1.9-3.1,2.2-5.4,1.6c-6.7-1.9-11.6-7.5-9.1-10.5c1.1-1.3,0.9-1.5-0.8-1.5c-1.2,0-2.5-0.1-2.9-0.2c-1.7-0.3-3.2-3.5-3.2-6.7
			c0-2.7,0.8-4.1,4-7c4.3-3.9,4.9-5.1,2.5-5.1c-0.8,0-2.4-0.9-3.5-2s-3-2-4.3-2c-8.7,0-6.3-9.3,3.3-13c1.9-0.7,5.1-3.1,7.1-5.2
			c3.1-3.2,4.3-3.8,7.9-3.8c4,0,4.2-0.1,3.6-2.4c-0.5-1.9,0.1-3,2.4-4.9c1.6-1.4,3-3.4,3-4.5c0-2.5,2-4.2,4.5-3.7
			c1.1,0.2,2.5,0.4,3.1,0.4s2.7,1.2,4.7,2.5c3.8,2.6,4.7,2.1,4.7-2.8c0-1.2,1.6-4.4,3.5-7.1s3.5-5.7,3.5-6.7c0-1,1.8-3.7,4-5.9
			c3.2-3.4,4.5-4.1,6.6-3.7c2.2,0.4,2.8,0,3.6-2.3c1.1-3.1,5.2-5.1,9.1-4.4c7.6,1.3,10,1.1,14.4-1.3c5-2.6,12.7-3.6,15.8-2
			c1.4,0.7,3.6,0.5,7.8-0.8c4.2-1.3,6.5-1.5,8.1-0.8c1.2,0.5,4.7,0.8,7.7,0.6c7.4-0.5,9.3,0.1,10.8,3.5c1.4,3.1,4.1,4.9,8.7,5.6
			c3.9,0.6,5.5,2.4,6.6,7.2c1.4,6,1.1,11.3-1,18.9c-1.5,5.4-2.7,7.6-5.2,9.7c-1.8,1.5-3.8,2.8-4.5,2.8c-1.8,0-6.9,6.3-9.8,12
			c-1.4,2.8-2.6,5.3-2.6,5.6c0,1.3,5.1-3.5,6-5.6c0.6-1.4,2.4-3.4,4-4.5c1.6-1.1,3-2.3,3-2.7c0-1.1,4.8-0.9,5.5,0.3
			c0.3,0.6,0.6,3.5,0.6,6.6c0,4.2-0.6,6.5-2.4,9.3c-3.7,5.7-6.9,12.2-6.4,13.4c0.2,0.6-1.7,5.9-4.3,11.7c-2.6,5.8-5.1,11.7-5.7,13
			c-1.3,3.1-3.4,14.1-3.8,19.5c-0.4,5.3-5.1,9.8-9.7,9.3c-2.8-0.3-3.2,0-3.8,3c-0.4,1.8-1.7,4.4-2.9,5.7c-2.1,2.2-10.3,5.8-11.2,4.9
			c-0.2-0.2-1.3,0.5-2.3,1.7c-1.9,2.1-1.9,2.1,0.3,3.6c2.7,1.8,3,5.8,0.6,8.4c-1.3,1.5-1.4,1.9-0.2,1.9c0.8,0.1,1.9,0.2,2.4,0.3
			c0.6,0.1,1.8,0.3,2.8,0.4c1,0.1,3.2,1.5,4.8,3.3c3.7,3.9,4.2,11.1,0.9,13.1c-2.6,1.6-2.5,2.6,0.5,4.9c1.4,1.1,2.5,2.8,2.5,3.9
			c0,1.2-0.9,2.1-2.5,2.5c-2,0.5-2.5,1.2-2.5,3.8c0,4.5-4.5,9.3-9,9.7l-3.5,0.3l0.3,7.5c0.3,6.8,0.1,7.8-2,10
			c-6.2,6.5-6.2,6.5-4.3,9.4c0.9,1.4,3.1,3.4,4.8,4.2c1.7,0.9,3.6,2.3,4.2,3.1c1.5,2,0.9,7.2-1.4,12.4
			C1700.8,273.2,1686.4,282.1,1684.5,276z"/>
		<path id="path2079" class="st0" d="M1497.5,238.6c-2.8-2.8-3.2-7.1-1.4-12.4c1.4-3.9,3.2-4,5.8-0.3c3.9,5.5,4,12.1,0.1,14.2
			C1500.4,240.9,1499.5,240.6,1497.5,238.6z"/>
		<path id="path2077" class="st0" d="M1571.1,237.2c-7.1-3.7-7.9-7.3-2.5-12c4.4-3.9,9.9-4.3,15-1.1c5.6,3.5,5.7,7.9,0.3,12.4
			C1580.5,239.3,1575.7,239.6,1571.1,237.2z"/>
		<path id="path2073" class="st0" d="M1562.3,220.5c-3.3-1.4-4.9-4.3-3.9-7.3c0.3-1.1-0.6-3.1-2.5-5.2c-3.7-4.2-4.4-6.7-3.7-12.8
			c0.6-5.4,3.7-8.7,7.1-7.7c1.2,0.3,4.8,2.4,8,4.5c3.2,2.1,6.2,3.9,6.6,3.9c1.6,0,3,5.6,3,12v6.9l-4.6,3.5
			C1567.2,222.4,1566.8,222.5,1562.3,220.5z"/>
		<path id="path2071" class="st0" d="M1540.7,218.7c-1.2-1.3-3.8-4.1-5.7-6.3c-6.2-7-9.2-8.7-15.5-8.5c-5,0.2-5.9-0.1-8.5-2.8
			c-3.1-3.1-3.8-6.7-1.9-10.2c0.6-1.1,1.7-1.9,2.5-1.9s2.3-0.9,3.4-1.9c1.7-1.7,1.8-2.5,0.9-5.8c-0.6-2.3-2.4-5-4.4-6.6
			c-6.4-5.3-3.6-13.7,4.5-13.7c4.5,0,10.1,3.9,10.1,7c0,1.9,1.4,3.3,3.7,3.6c2.4,0.4,7.1,5,9.3,9.1c1.2,2.3,3,5,3.9,6.1
			c3.4,3.7,3.9,5.5,2.4,9.7c-2,5.7-1.8,7,1.6,10.8c1.7,1.9,3,4.1,3,5c0,2.9-2.2,6.4-4.7,7.6C1543.3,220.8,1542.6,220.7,1540.7,218.7
			z"/>
		<path id="path2069" class="st0" d="M1598.1,207.9c-2.2-2.3-4.3-5.1-4.7-6.1c-0.3-1-1.7-3.1-3.1-4.6c-3.6-3.9-7.3-11.6-7.3-15.2
			c0-4,3.9-8,7.7-8c2.6,0,6.3-2.8,6.3-4.9c0-0.9-4.9-3.5-6.5-3.5c-0.6,0-3.1,0.4-5.7,0.8c-6.1,1-9.1,0.2-10.5-2.7
			c-0.8-1.7-0.7-3,0.4-5c0.8-1.6,1-2.7,0.4-2.7c-0.6,0-1.9-0.9-3-2c-2.2-2.2-2.6-7-0.9-11.9c1-2.8,1.5-3.1,5.1-3.1
			c3.7,0,3.9-0.2,3.3-2.2c-0.4-1.2-2-3.4-3.7-4.8c-2.5-2.2-2.9-3.1-2.3-5.7c0.8-3.7,2.8-5.5,6.4-6c6.2-0.7,6.4-1.5,1.6-6.6l-3.5-3.7
			l2-4c1.1-2.2,3.3-4.6,5-5.5c2.3-1.2,3-2.3,3.2-5.3c0.3-3.5,0.5-3.8,3.8-4.1c3.7-0.3,9.5,2.8,11.1,5.8c2.2,4.3,4.9,10.8,4.9,11.8
			c0,2.1,4.2,8.7,8.6,13.4c3.2,3.5,4.4,5.5,4.4,7.8c0,2.4,1.2,4.4,5,8.4c4.4,4.6,5,5.8,5,9.5c0,4.5,0.4,5,10,12.9c3.6,3,4,3.9,4,7.7
			c0,3.7-0.8,5.4-6,12.2c-3.3,4.4-7.1,8.5-8.5,9.3c-1.7,0.9-2.5,2.2-2.5,3.8c0,1.4-1.7,4.7-3.7,7.3c-4.1,5.4-4.7,5.7-9,4.4
			c-1.9-0.6-2.2-0.2-2.5,2.6c-0.3,3.2-0.4,3.3-5.5,3.6C1602.4,212.1,1602,211.9,1598.1,207.9z"/>
		<path id="path2065" class="st0" d="M1474.3,192c0.3-1.4,0.9-4.2,1.2-6.2c0.4-2.1,1.1-3.8,1.6-3.8c1.4,0-0.1,9.3-1.9,11
			C1473.9,194.3,1473.8,194.2,1474.3,192z"/>
		<path id="path1873" class="st0" d="M1550,148.7c-3.4-2.7-5.8-6.8-5.2-9c0.8-3.5,2.3-4.7,5.2-4.7c2.1,0,3.3,1,5.4,4.1
			c3.2,4.9,3.3,6.3,0.7,8.9C1553.7,150.3,1552.2,150.5,1550,148.7z"/>
	</g>
	<path id="CA-ON" class="st0" d="M1749.5,1249.1c1.1-2,2.4-3,5.2-3.4c2.1-0.3,4.4-1,5.1-1.5c1.9-1.2,2.8-8.2,1.3-9.1
		c-0.9-0.5-1-1.3-0.3-2.6c0.5-1,1.3-3.6,1.6-5.6c0.4-2,1.5-4.3,2.5-5c3.6-2.5,6.7-8.4,6.4-11.9c-0.2-1.9-0.4-7-0.5-11.5
		c-0.1-7.6,0.1-8.5,3.4-14.5l3.6-6.4l-1.8-4c-1-2.2-2.8-4.8-3.9-5.9c-2.1-1.9-2.9-4.6-1.4-4.6c0.4,0,3.4,2.7,6.6,6
		c5.3,5.4,10.7,8.9,16.1,10.4c5.5,1.5,8.5-7.7,4.4-13.5c-2.6-3.8-13.5-15.6-16.3-17.7c-1-0.8-4.9-1.8-8.5-2.2
		c-3.6-0.4-9.1-1.5-12.1-2.3c-3.9-1.1-9.7-1.6-20.2-1.6c-13.7,0-14.8-0.1-16.2-2.1c-0.8-1.1-3.8-3.3-6.7-4.8
		c-4.3-2.2-5.3-3.2-5.4-5.4c-0.1-1.5-1.4-4-3-5.7c-2.5-2.6-2.6-3.1-1.2-3.6c2.2-0.9,2.1-3-0.4-6.5c-1.1-1.6-2.9-4.8-4-7.3
		c-1.7-3.9-2.4-4.5-5.8-5c-3.8-0.6-14.5-5.7-17-8.2c-0.8-0.7-1.5-3-1.6-5.1c-0.1-2.1-0.6-5.1-1-6.7l-0.8-2.9l-8.1,0.5
		c-7.5,0.5-8.5,0.3-13.9-2.4l-5.8-2.9l-4.1,2.6c-3.8,2.4-4,2.7-2.6,4.2c1.4,1.4,1,2-5.1,5.9c-3.7,2.4-8.3,6.1-10.3,8.2
		c-4,4.3-4.5,4.4-18.9,2c-4.1-0.7-10.7-1.3-14.6-1.4c-6.7-0.2-13.4-2.6-13.4-4.7c0-0.4-1.2-0.8-2.6-0.8c-1.6,0-4-1.4-6.2-3.5
		c-3.7-3.5-3.8-3.5-12.9-3.5c-6.6,0-9.6-0.4-10.6-1.4c-0.8-0.8-3.2-1.7-5.3-2.1c-5.5-1-6.1-1.7-6.8-8.7c-0.6-5.7-0.9-6.4-3.9-7.8
		c-3.1-1.5-3.2-1.8-3.1-7.5c0.1-6.4,1.3-33.2,1.9-42.9c0.2-3.3,0.7-13.2,1-21.9c0.8-20-0.9-16.8,22.9-41.6c5-5.2,12-12.8,15.6-16.9
		c3.6-4.1,6.9-7.9,7.5-8.5c0.6-0.6,6.4-7.4,13-15.1c6.6-7.7,14.2-16.5,17-19.5c13.5-14.9,19.5-21.7,21.3-24l2-2.5l3.3,1.9
		c4.1,2.3,10.8,8.6,10.8,10.1c0,0.6,1.5,2.5,3.3,4.3c2.4,2.4,4.8,3.5,9.2,4.3c4.1,0.8,6.9,2,9,4c2.9,2.7,5.4,3.6,10,3.8
		c1.1,0,4.5,2.3,7.5,4.9l5.4,4.8l18.7,0.6c16.3,0.5,19.3,0.9,22.9,2.7l4.1,2.1l-0.7,8.7c-0.4,4.8-1.1,9.1-1.5,9.5
		c-0.5,0.5,0,2.2,1,4c1,1.7,2.2,5.1,2.5,7.6c1.1,8,1.3,8.8,2.2,10.7c0.5,1,0.8,3.9,0.6,6.4c-0.3,3.7,0.3,5.5,2.7,9.3
		c3.9,6.1,15.9,20.6,17.1,20.6c2.3,0,8.7,8.3,10.5,13.5l1.9,5.7l6.2-0.5l6.2-0.5l0.6,5.1c1,8.1,1.4,11.7,2,17.6c0.3,3,0.7,6.6,1,8
		c0.2,1.4,0.7,5.2,1,8.5c0.3,3.3,0.8,7.1,1,8.5c0.5,3.3,1.4,11.3,2.1,17.5c0.3,2.8,0.7,6.6,1,8.5c1.5,12,2.5,20.2,3,25.4
		c0.3,3.2,2,8.9,3.6,12.6c2.5,5.7,3.9,7.4,8.8,10.8c6.5,4.6,15.5,7.8,24.6,8.7c4.1,0.4,7.4,1.5,10.6,3.6c2.5,1.6,5.4,2.9,6.5,3
		c1.1,0,3.1,1.7,4.6,3.9l2.7,3.9l8.6-0.5c7.5-0.4,9.5-0.9,14.9-3.9c6.3-3.5,11.4-5.1,11.5-3.6c0.2,1.5,0.7,4.1,1.4,6.2
		c0.5,1.7-0.1,2.8-3.1,5.4c-6.2,5.3-11.4,10.8-18.8,20c-3.8,4.8-7.4,8.7-8,8.8c-1.7,0.1-5.7,3.9-5.1,4.8c1.2,1.9-6.9,4.9-13.5,5.1
		c-11.9,0.4-29.1,7.4-32.8,13.5c-3.6,6-3.6,7.5,0.2,9c1.9,0.8,4.3,1.2,5.4,0.9c1.5-0.4,2.3,0.3,3.6,3c1.9,4.1,1.3,4.6-5.4,4.6
		c-4,0-15,4.1-17.8,6.7c-1.3,1.2-1.2,1.6,1,3.3l2.5,1.9l-2.7,0.7c-1.5,0.4-4.7,0.2-7.2-0.4c-9.5-2.4-11.7-1.3-23.5,11
		c-6.5,6.8-8,7.9-11,7.9c-1.9,0-5,0.2-6.7,0.4l-3.2,0.3L1749.5,1249.1z"/>
	<path id="CA-PE" class="st0" d="M2100.7,1071.3c-0.3-0.3-4.3-0.7-8.8-0.9c-4.6-0.2-10.8-1.1-13.8-2c-6.7-2-8.1-2.3-10-2.4
		c-4.1-0.2-4.5-1.7-2-7c1.3-2.8,3-5.1,3.7-5.1c0.7,0,3.3,2,5.8,4.3c3.6,3.5,4.7,4.1,5.6,3c0.7-0.8,3.1-1.3,6.1-1.3
		c2.7,0,5.7-0.4,6.6-0.9c3.2-1.7,12.1-4,12.6-3.2c0.3,0.4-0.2,2-0.9,3.5c-0.8,1.5-1.5,4.7-1.6,7.1
		C2103.7,1070.4,2102.1,1072.8,2100.7,1071.3z"/>
	<g id="CA-QC">
		<path id="path2183" class="st0" d="M1898.8,1145.2c-0.9-1.5-1.8-4.3-2-6.2c-0.4-3.3-0.6-3.5-4.5-3.8c-4.1-0.3-9.5,1.8-15.4,5.9
			c-2,1.4-4.4,1.9-10.1,1.9c-7.4,0-7.5,0-9.8-3.5c-1.3-1.9-3.2-3.5-4.3-3.5s-4.2-1.4-7-3.1c-3.5-2.2-6.7-3.3-10.6-3.6
			c-8.4-0.7-17.8-3.8-23.6-7.8c-4.2-2.9-5.7-4.8-8.2-10.3c-1.8-4.1-3.3-9.3-3.7-13.2c-0.4-3.6-0.8-7.8-1-9.5s-0.9-7.3-1.5-12.5
			s-1.3-11.1-1.5-13c-0.2-1.9-0.7-5.5-1-8s-1.9-16.2-3.5-30.5c-1.6-14.3-3.2-27.2-3.5-28.6c-0.5-2.3-0.2-2.7,2.6-3.2
			c2.9-0.6,3.1-0.9,2.5-3.7c-0.5-2.4-0.1-4,2.1-7.2c1.5-2.3,2.8-5.3,2.8-6.7s-1.8-6.3-4.1-11s-4.5-10.3-5.1-12.5s-1.8-5.1-2.8-6.4
			c-1.2-1.6-1.6-4-1.5-7.3c0.3-5.2-2.4-10.9-6-12.9c-1.1-0.6-1.9-2.1-1.9-3.7c0-1.5-0.9-3.8-2-5.2s-2-3-2-3.5
			c0-1.5,4.9-5.8,10.5-9.3c2.7-1.7,6.4-4.8,8.2-6.9s5.2-6,7.6-8.7c3-3.3,5.7-7.8,8.1-13.8c3.3-8.1,3.6-9.8,3.5-17.4
			c-0.1-6.2-0.9-10.6-2.9-16.7c-1.5-4.5-3-9.4-3.4-10.9c-1-4.6-10-14.2-16.4-17.7c-7.7-4.1-13.7-10.1-14-13.9
			c-0.1-1.6,0.5-4.7,1.5-6.9c0.9-2.1,1.8-4.6,2-5.4c0.1-0.8,1.2-2.2,2.3-3.2c1.6-1.3,2.1-2.8,2.1-6.4c0-3.4,0.6-5.4,2-6.9
			c1.8-1.9,1.9-2.4,0.5-6.2c-0.8-2.3-1.6-5.2-1.9-6.6c-0.6-3.1-3.2-8.2-6.2-12.2c-2.1-2.7-2.3-4.1-2.3-14.3c0-8.2-0.4-11.8-1.4-13
			c-0.8-0.9-2.7-4.7-4.2-8.5l-2.8-6.9l2.6-5.2c2.5-5,2.8-5.3,7.3-5.9c7.5-1,13.9-0.8,18.2,0.8c5.7,2,13.7,2.7,16.9,1.5
			c1.5-0.6,4.5-2.8,6.7-5s4.5-3.9,5-3.9c1.8,0,21.1,10.2,27.5,14.5c4.9,3.2,6,4.5,5.8,6.5c-0.1,1.4,0.6,3.6,1.5,5.1
			c1.5,2.3,2.7,2.7,12,3.8c5.6,0.7,12.4,1.9,15.1,2.8l4.9,1.6l-0.7,5.5c-0.7,5.3,0.1,8.8,4.7,21.8c0.6,1.7,1,4.2,1,5.7
			c-0.1,1.7,0.9,3.7,2.4,5.3c1.4,1.4,3.4,4.5,4.5,7l2,4.5l4.9-0.6c4.7-0.6,5.1-0.4,10.2,3.9c2.9,2.5,6.5,4.8,8,5.2s2.7,1.1,2.7,1.6
			c0,1.9,2.1,0.7,6.4-3.4c3.3-3.2,4.6-5.3,5.1-8.4c0.5-2.9,1.3-4.4,2.9-5.1c1.4-0.6,2.8-2.7,3.6-5.4c1.6-4.9,1.4-15.3-0.3-18.3
			c-0.6-1.1-1-2.5-0.8-3c0.2-0.5,0.7-3.4,1.3-6.5c0.9-5,3.3-8.5,5-7.5c0.4,0.2,1,2.1,1.3,4.2c0.9,4.7,5.2,12.3,6.9,12.3
			c1.2,0,4.1,10,3.6,12.5c-0.6,2.7,0.3,3.1,5.8,2.7l5.8-0.4l-0.2,6.4c-0.1,3.5-0.6,7.9-1.2,9.7c-0.7,2.2-0.7,4-0.1,5.2
			c1.2,2.2,6.5,5.6,10.2,6.5c3.4,0.8,3.6,1.7,4.3,13.5c0.3,5.2,1.2,11.7,1.9,14.5s1.7,6.6,2,8.6c0.4,2.4,1.6,4.3,3.7,5.8
			c3,2.2,7.9,11,7.9,14.2c0,0.9,0.8,2.4,1.9,3.3c1,0.9,2.6,3.4,3.6,5.5c1.7,3.7,1.7,4-0.4,8.6l-2.1,4.7l-5.3-0.5
			c-2.9-0.3-6.6-0.8-8.3-1.2c-2.7-0.6-3.3-0.3-5.5,2.9c-2.7,3.9-4.4,4.4-7,2c-1-0.9-4.5-2.1-7.8-2.8c-6.7-1.4-7.3-1.1-8.5,3.7
			c-0.4,1.6-1.7,3.3-3.1,3.9c-1.9,0.9-2.5,1.9-2.5,4.5c0,2.4-0.9,4.3-3.1,6.6c-2.7,2.8-3,3.7-2.5,7.3c0.3,2.2,1.2,5.2,1.9,6.7
			c2.3,4.4,8.2,10.4,12.3,12.4c4.3,2.1,5.1,4.5,3.1,10.2c-1.1,3.1-1,3.5,1.7,5.8c2.9,2.5,6.4,2.8,12.2,0.8c1.9-0.6,2.2-0.2,2.8,4.5
			c0.5,3.6,1.5,6,3.2,7.7c2.3,2.3,3,2.5,8,1.8c4.5-0.6,5.9-0.4,7.5,1.1c1.1,1,2.7,1.9,3.7,2.1c4.7,0.9,14.9,1.1,16,0.4
			c0.7-0.4,1.5-2.8,1.7-5.2c0.6-5.6,1.3-12.3,1.4-12.7c0-0.1,1.9,0.7,4.2,1.8c3,1.6,5.2,2,8.2,1.6c4.3-0.6,20.4-6,37.1-12.6
			c25.7-10.1,41.5-15.9,47.4-17.4c3.5-0.9,7-2.1,7.8-2.8c0.8-0.7,1.7-0.8,2.1-0.2c2.3,2.7,7.1,9.3,7.1,9.7c0,0.3-2.8,2.7-6.2,5.3
			c-9.2,7-14.6,13.2-15.3,17.3c-0.3,1.9-2.5,7.5-5,12.5c-2.5,5-4.9,10.1-5.4,11.5c-1.1,3.1-17.3,11.8-27.6,14.8
			c-3.9,1.1-12.4,3.6-19,5.5c-38.7,11.2-57.4,18.2-60.8,22.9c-1,1.4-2.3,4.7-2.8,7.4s-1.8,7.9-3,11.6c-1.8,5.9-2.4,6.8-4.5,6.8
			c-4.8,0-14.6,11.2-18,20.5c-1,2.8-3.3,7.3-5,10c-1.8,2.8-3.4,6.6-3.7,8.5c-1.1,8.4-16.5,33.2-24.5,39.6
			c-11.2,9-26.6,25.4-25.2,26.8c0.2,0.2,4.2-3.8,8.9-9c4.7-5.2,11.5-11.6,15.1-14.4c6.2-4.7,13-11.9,17.6-18.6
			c4.1-6,11.4-20.4,11.4-22.5c0-1.2,0.5-3.1,1.1-4.3c1.8-3.5,11-14.8,14.9-18.3c1.9-1.8,5.7-5.3,8.5-7.8c2.7-2.5,7.7-6.2,11-8.3
			c3.3-2,9.4-6,13.5-8.9c5.2-3.6,9.5-5.7,14-6.8c6.1-1.5,6.9-1.5,12.4,0.2c4.8,1.5,6.2,2.4,7.6,5.2c4,7.6,3.3,12.7-2.4,19.7
			c-5.6,6.8-7.6,8.1-13.5,8.7c-11.5,1.2-21,3.9-24.2,6.8c-4.1,3.8-7.4,4.9-15.3,5.2c-9.5,0.4-10,1-9.2,11.1l0.6,8.2l-3.9,0.6
			c-2.1,0.3-5.1,0.4-6.5,0.1c-2-0.4-3.1,0.1-4.3,1.8c-2,2.8-6.2,16.6-7,22.8c-0.3,2.5-1,7.4-1.5,11s-1.2,8.4-1.4,10.8
			c-0.8,7.7-3.8,14.3-7.7,17.1c-2,1.4-4.6,4-5.9,5.8c-1.2,1.8-3.2,3.5-4.4,3.7c-1.2,0.2-9.4,2-18.3,4c-8.9,2-18.6,3.6-21.5,3.6
			C1901,1148,1900.3,1147.7,1898.8,1145.2z"/>
		<path id="path2161" class="st0" d="M2062,992.2c-1.4-0.2-3.6-1.2-5-2.1c-1.4-1-5.1-2.3-8.2-3c-7.1-1.5-8.5-4.1-4.2-7.7
			c2.3-1.9,4.2-2.4,9.4-2.5c13.7-0.3,18.6,0.3,27.8,3.3c9.1,3.1,9.2,3.2,9.2,6.4c0,3.8-0.4,4-11.5,4.9
			C2067.4,992.5,2064.7,992.6,2062,992.2z"/>
	</g>
	<path id="CA-SK" class="st0" d="M1419.9,1058.6c-0.2-0.2-4-0.7-8.4-1.1s-9.1-0.8-10.5-1s-5.4-0.7-9-1s-7.6-0.8-9-1s-5.4-0.7-9-1
		s-17.5-3.1-31-6.2s-25.2-5.6-26-5.8c-4.5-1-7.1-1.6-13-2.9c-3.6-0.8-7.4-1.7-8.5-1.9c-1.1-0.2-5.5-1.2-9.8-2.1
		c-6.3-1.4-7.7-2.1-7.3-3.4c0.5-1.5,8.3-33.8,9-37.1c0.2-0.8,1.7-7.3,3.5-14.5c1.7-7.2,4.7-19.8,6.7-28s5.8-24.2,8.5-35.5
		c2.7-11.3,5.2-21.4,5.4-22.5c0.2-1.1,1.8-7.6,3.4-14.5c1.7-6.9,5.1-21.1,7.6-31.5c2.5-10.5,6.1-25.3,7.9-33s5-20.8,7-29.2l3.7-15.2
		l5.2,0.4c2.8,0.2,7.4,0.8,10.1,1.2c2.7,0.4,8.4,0.3,12.7-0.2c7.3-0.9,8.1-0.8,13.8,1.8c5.7,2.5,8.1,2.7,8.1,0.6
		c0-1.1-21.2-11.5-26.5-12.9c-2.2-0.6-5-1.1-6.2-1.1c-1.2,0-3.2-0.9-4.2-2c-2.2-2.2-5.1-2.6-8.1-1c-2.3,1.2-2.3,0.9-0.8-6
		c0.9-4,1.4-5,2.8-4.6c1.5,0.4,8.5,1.9,15.2,3.1c1.3,0.3,3.3,0.6,4.4,0.9c3.3,0.7,44.8,8.8,47.5,9.2c1.4,0.2,7.9,1.5,14.5,2.8
		s13.8,2.6,16,2.8c3.9,0.4,4,0.5,3.8,3.8c-0.1,1.9-1.3,11.8-2.7,21.9s-2.9,20.8-3.2,23.5c-0.6,4.9-1.8,7.5-3.5,7.5
		c-1.5,0-7.5,6.6-8.8,9.8c-0.9,2.3-1,4-0.2,6.4c2.2,7.1,1.8,10.5-1.6,14c-2.2,2.3-2.9,3.7-2.3,4.7c0.7,1.1,1.5,0.9,4-1.3
		c1.7-1.5,3.8-2.7,4.6-2.7c1.5,0,1.5,3.2-0.1,23c-0.2,3-0.7,9.5-1,14.5s-0.8,11-1,13.5c-0.2,2.5-0.7,9-1,14.5s-0.8,11.6-1,13.5
		c-0.2,1.9-0.7,8.5-1,14.5c-0.3,6-0.8,12.1-1,13.5c-0.2,1.4-0.7,7.9-1,14.5c-0.4,6.6-0.8,12.7-1,13.5s-0.6,7.1-1,14s-0.8,13.2-1,14
		s-0.6,7.1-1,14s-0.9,13.3-1.1,14.3c-0.2,1-0.4,4.7-0.5,8.2C1422.7,1058.3,1421.7,1060.3,1419.9,1058.6z"/>
	<path id="CA-YT" class="st0" d="M1160.4,680.7c-1.1-0.7-5.3-2.8-9.4-4.6c-6.3-2.8-28-14.1-63.7-33.1c-11.3-6-52.9-31.8-83.6-51.9
		c-10.9-7.1-15.8-10.9-15.8-12.1c0-2.5,3.1-7.4,6.3-9.9c5.8-4.6,2.5-7.5-8.9-7.9c-2.3-0.1-3.3-0.7-3.7-2.1c-0.3-1.1-0.9-1.9-1.4-1.8
		c-1.9,0.5-5.3-1.4-5.9-3.3c-0.5-1.5,1.9-5.8,9.3-16.7c13.8-20.3,39.2-58,58.9-87.2c15.7-23.3,35.9-53.2,63.2-93.7l12.3-18.2
		l3.2,1.1c6.6,2.3,8.5,4.5,9.2,10.9c0.4,3.2,1.7,8,3,10.5s2.6,6.3,3,8.5c0.5,2.8,1.7,4.8,4.7,7.3c3.7,3.2,3.9,3.6,2.6,5.3
		c-2.1,2.5-12.2,19-14.6,23.8c-1.1,2.2-2.8,6.5-3.7,9.5c-1,3-2.8,7.5-4,10c-4.4,8.8-4.6,8.1,6,16.1c7.3,5.5,9.5,7.7,9.5,9.5
		c0,1.3-1.6,5.4-3.6,9.2c-2.3,4.5-3.8,8.8-4.1,12.4c-0.5,5.4-0.4,5.6,3.1,8.3c3.9,3,3.7,2.1,2.6,13.8c0,0.4-1.4,1-3,1.3
		c-3.2,0.7-6.1,4.3-6.1,7.4c0,1.1-0.9,3.5-2,5.4c-2.2,3.7-1.7,7,1.4,9.6c1.1,0.9,1.4,2.4,1.1,5.3c-0.4,3,0,4.7,1.7,7.1
		c1.6,2.2,2.3,4.7,2.4,8.7c0.1,3.1,0.9,7.1,1.9,9c1.7,3.3,1.7,3.7-0.3,10.5c-2.6,9.1-3.9,16.2-4.6,25.8c-0.3,4.2-1.1,9.1-1.7,10.8
		c-1,2.8-0.8,3.5,1.4,5.8c3.3,3.6,4.3,5.6,6.2,13.2c0.9,3.6,2.9,8.8,4.5,11.7c2,3.8,2.5,5.3,1.5,5.7c-0.7,0.3-1.5,2.7-1.8,5.3
		c-0.3,2.7-0.8,6.1-1.2,7.6c-0.9,3.3,0.4,4.6,8.5,8.3c3,1.4,7.2,3.7,9.3,5.2s5,2.7,6.5,2.7l2.7,0l-0.3,10.4
		c-0.2,5.7-0.4,10.6-0.6,10.7C1162.5,681.8,1161.5,681.4,1160.4,680.7z"/>
</g>
</svg>
