<svg id="Layer_1" data-name="Layer 1" xmlns="http://www.w3.org/2000/svg" viewBox="0 0 150 150"><defs><style>.cls-1{fill:#fff;}.cls-2{fill:#231f20;}.cls-3{fill:#ec1c24;}.cls-4{fill:#37b34a;}.cls-5{fill:#00adee;}</style></defs><title>RGBW icon</title><circle class="cls-1" cx="79" cy="73.6" r="22.5"/><path class="cls-2" d="M325,14a75,75,0,1,0,75,75A75,75,0,0,0,325,14Zm0,143.7A68.7,68.7,0,1,1,393.7,89,68.8,68.8,0,0,1,325,157.7Z" transform="translate(-250 -14)"/><circle class="cls-2" cx="43" cy="74.2" r="28.6"/><circle class="cls-3" cx="43" cy="74.2" r="25.3"/><circle class="cls-2" cx="75.4" cy="47.1" r="28.6"/><circle class="cls-4" cx="75.4" cy="47.1" r="25.3"/><circle class="cls-2" cx="107.2" cy="74.2" r="28.6"/><circle class="cls-5" cx="107.2" cy="74.2" r="25.3"/><circle class="cls-2" cx="75.4" cy="101" r="28.6"/><circle class="cls-1" cx="75.4" cy="101" r="25.3"/></svg>