<svg id="Layer_1" data-name="Layer 1" xmlns="http://www.w3.org/2000/svg" viewBox="0 0 347 281.3"><defs><style>.cls-1{fill:#231f20;}</style></defs><title>cULus icon</title><path class="cls-1" d="M441.7,80.2h12.8v41.2c0,2.6.8,4.9,4.5,4.9s4.3-2.9,4.3-5.3V80.2h12.8v39.5c0,9.3-4.1,16.4-17.2,16.4-10.9,0-17.2-5.2-17.2-16.4V80.2" transform="translate(-168.1 27.5)"/><polyline class="cls-1" points="55 280 55 225.3 67.9 225.3 67.9 269.1 83.6 269.1 83.6 280 55 280"/><polyline class="cls-1" points="88.4 280 88.4 225.3 101.3 225.3 101.3 280 88.4 280"/><path class="cls-1" d="M286.1,234.1V238c0,3.1,1,5.9,5.1,5.9s4.3-2.7,4.3-5.5c0-4.6-3.8-6.3-7.1-8.4s-7.3-4.3-9.7-7.1a15.7,15.7,0,0,1-3.8-10.9c0-10.3,6.3-15.5,16.2-15.5s16.8,7.4,16.3,17.7H295.5c-.1-3.2,0-7.6-4.2-7.9a3.8,3.8,0,0,0-4.4,3.7c-.4,3.2,1.3,4.9,3.8,6.7,4.8,3,9,4.9,12,7.7s4.7,6.4,4.7,13c0,10.5-5.8,16.3-16.5,16.3s-16.7-6.5-16.7-13.7v-5.9h11.9" transform="translate(-168.1 27.5)"/><polyline class="cls-1" points="143 225.3 176.3 225.3 176.3 236.2 165.9 236.2 165.9 280 153.1 280 153.1 236.2 143 236.2 143 225.3"/><polyline class="cls-1" points="181.3 280 181.3 225.3 210.7 225.3 210.7 236.2 194.1 236.2 194.1 246.3 210.1 246.3 210.1 257.2 194.1 257.2 194.1 269.1 211.5 269.1 211.5 280 181.3 280"/><path class="cls-1" d="M398.7,207.6c6.2.2,8.3.5,8.4,6.9v17.9c.2,7.3.1,10.8-8.4,10.2v-35m4.4,44.8c3.9,0,8-.3,11.3-2.5s5.4-6.4,5.5-11.8V213.8c0-5.2-.8-10.6-5.8-13.5s-9.7-2.5-14.4-2.5H385.8v54.6h17.3" transform="translate(-168.1 27.5)"/><path class="cls-1" d="M493.7,116.5v3.9c0,3.1,1.1,5.9,5.2,5.9s4.3-2.7,4.3-5.5c0-4.6-3.8-6.3-7.2-8.3s-7.3-4.4-9.7-7.2a15.9,15.9,0,0,1-3.7-10.9c0-10.3,6.2-15.5,16.1-15.5s16.9,7.4,16.3,17.7H503.2c-.2-3.2,0-7.6-4.3-7.9-2.6-.2-4.1,1.3-4.4,3.7s1.3,4.9,3.9,6.7c4.8,3,8.9,4.9,11.9,7.7s4.8,6.4,4.8,13c0,10.5-5.9,16.3-16.5,16.3s-16.8-6.5-16.8-13.7v-5.9h11.9" transform="translate(-168.1 27.5)"/><path class="cls-1" d="M322.4-27.5A105.6,105.6,0,1,0,428,78.1,105.6,105.6,0,0,0,322.4-27.5Zm0,191.6a86,86,0,1,1,86-86A86,86,0,0,1,322.4,164.1Z" transform="translate(-168.1 27.5)"/><path class="cls-1" d="M270.9,21.5h19.5V84.2c0,4,1.2,7.4,6.7,7.4s6.7-4.4,6.7-8V21.5h19.5V81.7c0,14-6.3,24.9-26.3,24.9-16.5,0-26.1-7.9-26.1-24.9V21.5" transform="translate(-168.1 27.5)"/><polyline class="cls-1" points="162.9 162.3 162.9 79.1 182.3 79.1 182.3 145.6 206.2 145.6 206.2 162.3 162.9 162.3"/><path class="cls-1" d="M294.6,118h2c1,0,2.7,0,2.8,2.2a2.2,2.2,0,0,1-2.5,2.4h-2.3V118m0,5.9h2.5c1.7,0,2.2,1.1,2.2,2.4a12,12,0,0,0,.5,3.3h1.7v-.3c-.4,0-.5-.6-.6-.8a28.3,28.3,0,0,1-.2-2.9c-.2-1.7-.6-2.2-2.3-2.4h0a2.8,2.8,0,0,0,2.5-2.8c0-3-1.7-3.7-4.4-3.7h-3.3v12.9h1.4v-5.7" transform="translate(-168.1 27.5)"/><path class="cls-1" d="M297.1,111.4a11.8,11.8,0,1,0,11.7,11.7A11.7,11.7,0,0,0,297.1,111.4Zm0,22.3a10.6,10.6,0,0,1,0-21.2,10.6,10.6,0,0,1,0,21.2Z" transform="translate(-168.1 27.5)"/><path class="cls-1" d="M189.8,99.4V95.9c0-4.7-1.6-7.1-4-7.1-4,0-4.9,2.1-4.9,5.7v26.9c0,3.1,1.2,4.9,4.6,4.9s4.7-4.5,4.7-7.8v-5h12.8v6.7c0,9.4-5.4,15.9-18.5,15.9s-16.3-6.2-16.3-17.3V96.4c0-11.9,5.4-17.4,17.1-17.4s17.4,4.7,17.4,15.8v4.6H189.8" transform="translate(-168.1 27.5)"/></svg>