<?xml version="1.0"?>
<svg xmlns="http://www.w3.org/2000/svg" height="512px" viewBox="-13 0 512 512" width="512px"><g><path d="m433.175781 512c-.652343 0-1.3125-.070312-1.960937-.199219-.628906-.121093-1.261719-.320312-1.871094-.570312-.597656-.25-1.179688-.558594-1.71875-.921875-.550781-.359375-1.058594-.777344-1.53125-1.238282-.457031-.460937-.867188-.96875-1.238281-1.519531-.359375-.539062-.671875-1.121093-.921875-1.722656-.25-.609375-.4375-1.238281-.570313-1.878906-.128906-.640625-.1875-1.300781-.1875-1.949219s.058594-1.308594.1875-1.949219c.132813-.640625.320313-1.269531.570313-1.871093.25-.609376.5625-1.191407.921875-1.730469.371093-.550781.78125-1.058594 1.238281-1.519531.472656-.460938.980469-.878907 1.53125-1.238282.539062-.363281 1.121094-.671875 1.71875-.921875.609375-.25 1.242188-.449219 1.871094-.570312 1.289062-.257813 2.621094-.257813 3.910156 0 .640625.121093 1.269531.320312 1.871094.570312.597656.25 1.1875.558594 1.730468.921875.546876.359375 1.058594.777344 1.519532 1.238282.457031.460937.878906.96875 1.238281 1.519531.359375.539062.671875 1.121093.921875 1.730469.25.601562.4375 1.230468.570312 1.871093.128907.640625.199219 1.300781.199219 1.949219s-.070312 1.308594-.199219 1.949219c-.132812.640625-.320312 1.269531-.570312 1.878906-.25.601563-.5625 1.183594-.921875 1.722656-.359375.550781-.78125 1.058594-1.238281 1.519531-.460938.460938-.972656.878907-1.519532 1.238282-.542968.363281-1.132812.671875-1.730468.921875-.601563.25-1.230469.449219-1.871094.570312-.640625.128907-1.300781.199219-1.949219.199219zm0 0" data-original="#000000" class="active-path" data-old_color="#000000" fill="#418FDE"/><path d="m68.714844 512c-.660156 0-1.308594-.058594-1.960938-.191406-.640625-.128906-1.269531-.328125-1.867187-.578125-.601563-.25-1.183594-.558594-1.730469-.921875-.542969-.359375-1.050781-.777344-1.519531-1.238282-.460938-.460937-.871094-.96875-1.242188-1.519531-.359375-.539062-.667969-1.121093-.917969-1.722656-.25-.609375-.441406-1.238281-.570312-1.878906-.132812-.640625-.203125-1.300781-.203125-1.949219s.070313-1.308594.203125-1.949219c.128906-.640625.320312-1.269531.570312-1.871093.25-.609376.558594-1.191407.917969-1.730469.371094-.550781.78125-1.058594 1.242188-1.519531.46875-.460938.976562-.878907 1.519531-1.238282.546875-.363281 1.128906-.671875 1.730469-.921875.597656-.25 1.226562-.449219 1.867187-.570312 1.292969-.257813 2.621094-.257813 3.910156 0 .640626.121093 1.269532.320312 1.871094.570312.601563.25 1.179688.558594 1.730469.921875.539063.359375 1.058594.777344 1.519531 1.238282.460938.460937.878906.96875 1.238282 1.519531.363281.539062.671874 1.121093.921874 1.730469.25.601562.441407 1.230468.570313 1.871093s.199219 1.300781.199219 1.949219-.070313 1.308594-.199219 1.949219-.320313 1.269531-.570313 1.878906c-.25.601563-.558593 1.183594-.921874 1.722656-.359376.550781-.777344 1.058594-1.238282 1.519531-.460937.460938-.980468.878907-1.519531 1.238282-.550781.363281-1.128906.671875-1.730469.921875-.601562.25-1.230468.449219-1.871094.578125-.648437.132812-1.300781.191406-1.949218.191406zm0 0" data-original="#000000" class="active-path" data-old_color="#000000" fill="#418FDE"/><path d="m390.171875 492h-97.507813v-20.898438h.402344c5.523438 0 10-4.476562 10-10v-28.058593h4c5.523438 0 10-4.476563 10-10v-23.113281c29.539063-13.5 54.742188-34.738282 73.167969-61.742188 20.191406-29.585938 30.863281-64.222656 30.863281-100.171875 0-48.007813-18.832031-93.011719-53.023437-126.726563-34.203125-33.722656-79.5-51.90625-127.578125-51.242187-45.394532.640625-88.824219 19.347656-122.285156 52.679687-33.46875 33.328126-52.34375 76.675782-53.148438 122.054688-.652344 36.585938 9.71875 71.914062 29.992188 102.164062 18.496093 27.601563 43.988281 49.269532 74.011718 62.984376v23.113281c0 5.523437 4.476563 10 10 10h4v28.058593c0 5.519532 4.476563 10 10 10h.398438v20.898438h-81.753906c-5.523438 0-10 4.476562-10 10s4.476562 10 10 10h278.460937c5.523437 0 10-4.476562 10-10s-4.480469-10-10-10zm-305.113281-256.859375c1.472656-82.898437 72.785156-153.921875 155.722656-155.09375 42.6875-.597656 82.894531 15.550781 113.25 45.484375 30.351562 29.925781 47.066406 69.871094 47.066406 112.484375 0 64.261719-38.40625 121.613281-97.84375 146.113281-3.742187 1.542969-6.1875 5.195313-6.1875 9.246094v19.667969h-108.003906v-19.667969c0-4.050781-2.441406-7.703125-6.1875-9.246094-60.585938-24.972656-98.980469-83.453125-97.816406-148.988281zm198.007812 197.902344v18.058593h-80v-18.058593zm-69.601562 58.957031v-20.898438h59.199218v20.898438zm0 0" data-original="#000000" class="active-path" data-old_color="#000000" fill="#418FDE"/><path d="m243.066406 365.339844c-8.320312 0-16.644531-.816406-24.746094-2.425782-4.101562-.8125-7.265624-4.097656-7.925781-8.226562l-1.257812-7.863281c-6.3125-1.980469-12.433594-4.511719-18.292969-7.570313l-6.4375 4.664063c-3.386719 2.449219-7.941406 2.535156-11.417969.214843-13.925781-9.300781-25.699219-21.074218-35-34.992187-2.324219-3.476563-2.238281-8.035156.214844-11.421875l4.660156-6.433594c-3.054687-5.859375-5.585937-11.976562-7.570312-18.289062l-7.863281-1.257813c-4.128907-.660156-7.414063-3.820312-8.230469-7.921875-1.609375-8.09375-2.425781-16.417968-2.425781-24.742187 0-8.320313.816406-16.644531 2.425781-24.738281.816406-4.105469 4.101562-7.265626 8.230469-7.925782l7.867187-1.257812c1.980469-6.3125 4.511719-12.425782 7.570313-18.285156l-4.664063-6.433594c-2.453125-3.386719-2.539063-7.945313-.214844-11.425782 9.300781-13.917968 21.078125-25.691406 35-34.988281 3.476563-2.324219 8.035157-2.238281 11.417969.214844l6.4375 4.660156c5.863281-3.054687 11.980469-5.585937 18.296875-7.570312l1.257813-7.859375c.660156-4.132813 3.820312-7.414063 7.925781-8.230469 16.195312-3.21875 33.289062-3.21875 49.488281 0 4.101562.816406 7.265625 4.097656 7.925781 8.230469l1.253907 7.859375c6.316406 1.984375 12.4375 4.515625 18.296874 7.570312l6.4375-4.660156c3.386719-2.453125 7.941407-2.539063 11.417969-.214844 13.921875 9.296875 25.699219 21.070313 35 34.988281 2.324219 3.480469 2.238281 8.039063-.214843 11.425782l-4.664063 6.433594c3.058594 5.859374 5.589844 11.972656 7.574219 18.285156l7.863281 1.257812c4.132813.660156 7.414063 3.824219 8.230469 7.925782 1.609375 8.097656 2.425781 16.421874 2.425781 24.738281 0 8.320312-.816406 16.644531-2.425781 24.742187-.816406 4.101563-4.097656 7.265625-8.230469 7.925782l-7.863281 1.253906c-1.984375 6.3125-4.515625 12.429687-7.570313 18.289062l4.660157 6.433594c2.453124 3.386719 2.539062 7.945312.214843 11.421875-9.300781 13.921875-21.078125 25.691406-35 34.992187-3.476562 2.324219-8.03125 2.238282-11.417969-.214843l-6.4375-4.660157c-5.859374 3.054688-11.980468 5.585938-18.296874 7.570313l-1.253907 7.859375c-.660156 4.132812-3.824219 7.414062-7.925781 8.230469-8.101562 1.605469-16.425781 2.421875-24.746094 2.421875zm-14.058594-20.921875c9.292969 1.226562 18.820313 1.226562 28.113282 0l1.128906-7.058594c.632812-3.957031 3.566406-7.152344 7.453125-8.125 8.863281-2.214844 17.316406-5.714844 25.132813-10.398437 3.4375-2.0625 7.769531-1.871094 11.011718.476562l5.785156 4.1875c7.496094-5.726562 14.148438-12.382812 19.878907-19.875l-4.1875-5.78125c-2.351563-3.242188-2.539063-7.574219-.476563-11.011719 4.6875-7.8125 8.1875-16.265625 10.402344-25.128906.972656-3.882813 4.167969-6.816406 8.121094-7.449219l7.066406-1.128906c.609375-4.644531.917969-9.347656.917969-14.050781s-.308594-9.410157-.917969-14.050781l-7.066406-1.128907c-3.953125-.632812-7.148438-3.566406-8.121094-7.449219-2.214844-8.859374-5.714844-17.316406-10.402344-25.128906-2.0625-3.433594-1.875-7.769531.476563-11.011718l4.1875-5.78125c-5.730469-7.492188-12.386719-14.144532-19.878907-19.875l-5.785156 4.191406c-3.246094 2.347656-7.578125 2.535156-11.011718.476562-7.816407-4.6875-16.269532-8.1875-25.132813-10.402344-3.886719-.96875-6.820313-4.167968-7.453125-8.121093l-1.128906-7.0625c-9.292969-1.222657-18.820313-1.222657-28.113282 0l-1.128906 7.0625c-.632812 3.953125-3.566406 7.152343-7.453125 8.121093-8.863281 2.214844-17.316406 5.714844-25.132812 10.402344-3.433594 2.058594-7.765625 1.871094-11.011719-.476562l-5.785156-4.191406c-7.492188 5.730468-14.148438 12.382812-19.878906 19.875l4.1875 5.78125c2.351562 3.246093 2.539062 7.578124.476562 11.011718-4.6875 7.816406-8.1875 16.269532-10.402344 25.128906-.972656 3.886719-4.167968 6.816407-8.121094 7.449219l-7.066406 1.128907c-.613281 4.640624-.921875 9.347656-.921875 14.050781 0 4.707031.308594 9.410156.921875 14.054687l7.0625 1.128906c3.957032.628907 7.152344 3.5625 8.125 7.449219 2.214844 8.859375 5.714844 17.3125 10.402344 25.128907 2.0625 3.433593 1.875 7.765624-.476562 11.011718l-4.1875 5.78125c5.730468 7.492188 12.382812 14.144532 19.878906 19.871094l5.785156-4.1875c3.242188-2.351562 7.574219-2.539062 11.007812-.476562 7.816407 4.6875 16.273438 8.183593 25.136719 10.398437 3.886719.972656 6.816407 4.167969 7.449219 8.125zm0 0" data-original="#000000" class="active-path" data-old_color="#000000" fill="#418FDE"/><path d="m243.066406 314.425781c-41.550781 0-75.351562-33.804687-75.351562-75.351562s33.800781-75.347657 75.351562-75.347657c41.546875 0 75.347656 33.800782 75.347656 75.347657s-33.800781 75.351562-75.347656 75.351562zm0-130.699219c-30.519531 0-55.351562 24.828126-55.351562 55.347657s24.832031 55.351562 55.351562 55.351562c30.519532 0 55.347656-24.832031 55.347656-55.351562s-24.828124-55.347657-55.347656-55.347657zm0 0" data-original="#000000" class="active-path" data-old_color="#000000" fill="#418FDE"/><path d="m243.066406 48.722656c-5.523437 0-10-4.480468-10-10v-28.722656c0-5.523438 4.476563-10 10-10 5.523438 0 10 4.476562 10 10v28.722656c0 5.519532-4.476562 10-10 10zm0 0" data-original="#000000" class="active-path" data-old_color="#000000" fill="#418FDE"/><path d="m476.128906 253.066406h-28.71875c-5.523437 0-10-4.476562-10-10 0-5.523437 4.476563-10 10-10h28.71875c5.523438 0 10 4.476563 10 10 0 5.523438-4.476562 10-10 10zm0 0" data-original="#000000" class="active-path" data-old_color="#000000" fill="#418FDE"/><path d="m38.722656 253.066406h-28.722656c-5.523438 0-10-4.476562-10-10 0-5.523437 4.476562-10 10-10h28.722656c5.519532 0 10 4.476563 10 10 0 5.523438-4.480468 10-10 10zm0 0" data-original="#000000" class="active-path" data-old_color="#000000" fill="#418FDE"/><path d="m407.867188 417.867188c-2.558594 0-5.117188-.976563-7.070313-2.929688l-20.308594-20.308594c-3.90625-3.90625-3.90625-10.238281 0-14.140625 3.902344-3.90625 10.234375-3.90625 14.140625 0l20.308594 20.308594c3.90625 3.90625 3.90625 10.238281 0 14.140625-1.953125 1.953125-4.511719 2.929688-7.070312 2.929688zm0 0" data-original="#000000" class="active-path" data-old_color="#000000" fill="#418FDE"/><path d="m98.570312 108.570312c-2.558593 0-5.117187-.972656-7.070312-2.925781l-20.308594-20.308593c-3.90625-3.90625-3.90625-10.238282 0-14.144532s10.238282-3.90625 14.144532 0l20.308593 20.308594c3.90625 3.90625 3.90625 10.238281 0 14.144531-1.953125 1.953125-4.511719 2.925781-7.074219 2.925781zm0 0" data-original="#000000" class="active-path" data-old_color="#000000" fill="#418FDE"/><path d="m78.261719 417.867188c-2.558594 0-5.117188-.976563-7.070313-2.929688-3.90625-3.90625-3.90625-10.238281 0-14.140625l20.308594-20.308594c3.90625-3.90625 10.238281-3.90625 14.144531-.003906 3.902344 3.90625 3.90625 10.238281 0 14.144531l-20.308593 20.308594c-1.953126 1.953125-4.515626 2.929688-7.074219 2.929688zm0 0" data-original="#000000" class="active-path" data-old_color="#000000" fill="#418FDE"/><path d="m387.558594 108.570312c-2.558594 0-5.121094-.972656-7.070313-2.925781-3.90625-3.90625-3.90625-10.238281 0-14.144531l20.308594-20.308594c3.902344-3.90625 10.234375-3.90625 14.140625 0s3.90625 10.238282 0 14.144532l-20.308594 20.308593c-1.953125 1.953125-4.511718 2.925781-7.070312 2.925781zm0 0" data-original="#000000" class="active-path" data-old_color="#000000" fill="#418FDE"/></g> </svg>
