<svg id="Layer_1" data-name="Layer 1" xmlns="http://www.w3.org/2000/svg" viewBox="0 0 1732.86 128.99"><defs><style>.cls-1{fill:#fff;}.cls-2{fill:#418fde;}</style></defs><title>AL INC</title><path class="cls-1" d="M272.21,96.89h-10L255.62,80.5H226.1l-6.44,16.39h-9.92L236.61,31.4h8.68ZM252.34,72.11l-11.48-30-11.25,30Z"/><path class="cls-1" d="M363.88,96.89h-9.27V45.81L331.53,75.1,308.38,45.81V96.89h-9.27V32.11h9.24l23.15,30,23.12-30h9.27Z"/><path class="cls-1" d="M439,96.89H398V32.11h41v8.44H407.31V58h24.77v8.38H407.31V88.59H439Z"/><path class="cls-1" d="M519.09,96.89H508L487.74,68h-8.5V96.9H470V32.11h18.51a20.67,20.67,0,0,1,15.85,6.11A16.83,16.83,0,0,1,509,50a16.39,16.39,0,0,1-11.48,16.18Zm-20-47.24A8.15,8.15,0,0,0,496,42.86a13.91,13.91,0,0,0-8.86-2.48h-8V59.45h8.09a12.75,12.75,0,0,0,9.15-3,9.06,9.06,0,0,0,2.75-6.73Z"/><path class="cls-1" d="M556.12,96.89h-9.27V32.11h9.27Z"/><path class="cls-1" d="M645.34,47.31A41.72,41.72,0,0,0,622.6,39.4a23.62,23.62,0,0,0-17.45,7.23,24.42,24.42,0,0,0-7,17.87,24.36,24.36,0,0,0,7.14,17.71,23.62,23.62,0,0,0,17.45,7.2,38.38,38.38,0,0,0,22.65-7.53v10a43.28,43.28,0,0,1-22.65,6.35,33.81,33.81,0,0,1-24.3-9.45,32.15,32.15,0,0,1-10.13-24.3A32.21,32.21,0,0,1,598.4,40.2a33.89,33.89,0,0,1,24.3-9.42,44.82,44.82,0,0,1,22.65,6.5Z"/><path class="cls-1" d="M734.35,96.89h-9.92L717.88,80.5H688.36L681.8,96.89h-9.89L698.78,31.4h8.56ZM714.48,72.11l-11.37-30-11.34,30Z"/><path class="cls-1" d="M820.24,96.89H811l-40.42-51v51h-9.27V32.11h9.24L811,83.1v-51h9.27Z"/><path class="cls-1" d="M933,96.89H893.34V32.11h9.27V88.5H933Z"/><path class="cls-1" d="M970.31,96.89H961V32.11h9.27Z"/><path class="cls-1" d="M1706.94,47.31a41.72,41.72,0,0,0-22.73-7.91,23.62,23.62,0,0,0-17.33,7.23,24.42,24.42,0,0,0-7.14,17.86,24.36,24.36,0,0,0,7.14,17.71,23.62,23.62,0,0,0,17.45,7.2A38.38,38.38,0,0,0,1707,81.74v10a43.28,43.28,0,0,1-22.65,6.35,33.81,33.81,0,0,1-24.3-9.45,32.15,32.15,0,0,1-10.13-24.3A32.21,32.21,0,0,1,1660,40a33.89,33.89,0,0,1,24.3-9.42A44.82,44.82,0,0,1,1707,37.18Z"/><path class="cls-1" d="M1621.76,96.89h-9.27L1572,45.9v51h-9.27V32.11H1572l40.48,51v-51h9.27Z"/><path class="cls-1" d="M1534.72,96.89h-9.27V32.11h9.27Z"/><path class="cls-1" d="M1062.51,90.74a57.1,57.1,0,0,1-12,5.31,43,43,0,0,1-12.93,2.3A34.66,34.66,0,0,1,1013,88.91a31.83,31.83,0,0,1-10.39-24.42,32.21,32.21,0,0,1,10-23.94,34.1,34.1,0,0,1,24.8-9.77,50.87,50.87,0,0,1,24.27,6.82v10a40.77,40.77,0,0,0-24.39-8.09,23.86,23.86,0,0,0-17.57,7.23,24.3,24.3,0,0,0-7.2,17.86,23.94,23.94,0,0,0,7.38,17.71,24.48,24.48,0,0,0,17.71,7.23A38.56,38.56,0,0,0,1053.3,86V70.46H1038V62.11h24.53Z"/><path class="cls-1" d="M1152.5,96.89h-9.27V66.33h-37V96.89H1097V32.11h9.27V57.94h37V32.11h9.27Z"/><path class="cls-1" d="M1230.62,40.55h-20.49V96.94h-9.27V40.55H1180.2V32.11h50.19Z"/><path class="cls-1" d="M1267.88,96.89h-9.27V32.11h9.27Z"/><path class="cls-1" d="M1361,96.89h-9.27l-40.42-51v51H1302V32.11h9.24l40.48,51v-51H1361Z"/><path class="cls-1" d="M1453.24,90.74a57.1,57.1,0,0,1-12,5.31,43,43,0,0,1-12.93,2.3,34.66,34.66,0,0,1-24.56-9.45,31.83,31.83,0,0,1-10.39-24.3,32.21,32.21,0,0,1,9.95-24.06,34.1,34.1,0,0,1,24.8-9.77,50.87,50.87,0,0,1,24.18,6.82v10a40.77,40.77,0,0,0-24.51-8.24,23.86,23.86,0,0,0-17.57,7.23A24.3,24.3,0,0,0,1403,64.5a23.94,23.94,0,0,0,7.38,17.71,24.48,24.48,0,0,0,17.71,7.23,38.56,38.56,0,0,0,15.74-3.63V70.46h-15.26V62.11h24.53Z"/><circle class="cls-1" cx="1727.1" cy="91.04" r="5.82"/><polygon class="cls-2" points="77.69 0.23 137.36 128.76 137.36 0.23 77.69 0.23"/><path class="cls-2" d="M31.73,60.28h0l27.8-60H-.06V56.91A296.23,296.23,0,0,1,31.73,60.28Z"/><path class="cls-2" d="M49.73,63.88c28.42,6.59,44.66,15.24,44.66,15.24h0L68.57,21.37Z"/><path class="cls-2" d="M-.06,57.37v71.31H0L29.89,64.11A166.18,166.18,0,0,0-.06,57.37Z"/><path class="cls-2" d="M46.59,70.78l-25.81,58h95.67C94.16,98.51,69,81,46.59,70.78Z"/></svg>