<?xml version="1.0" encoding="utf-8"?>
<!-- Generator: Adobe Illustrator 24.0.0, SVG Export Plug-In . SVG Version: 6.00 Build 0)  -->
<svg version="1.1" id="Layer_1" xmlns="http://www.w3.org/2000/svg" xmlns:xlink="http://www.w3.org/1999/xlink" x="0px" y="0px"
	 viewBox="0 0 464.3 22.1" style="enable-background:new 0 0 464.3 22.1;" xml:space="preserve">
<style type="text/css">
	.st0{fill:#009FE1;}
	.st1{fill:#232020;}
</style>
<path class="st1" d="M11.6,17H9.8l-1.2-3H3l-1.2,3H0L5,4.8h1.6L11.6,17z M7.9,12.4L5.8,6.8l-2.1,5.6H7.9z"/>
<path class="st1" d="M28.8,17h-1.7V7.5L22.7,13l-4.3-5.5V17h-1.7V4.9h1.7l4.3,5.6l4.4-5.6h1.7V17z"/>
<path class="st1" d="M42.9,17h-7.7V4.9h7.7v1.6h-6v3.3h4.7v1.5h-4.7v4.2h6V17z"/>
<path class="st1" d="M57.9,17h-2.1L52,11.6h-1.6V17h-1.7V4.9h3.4c1.1-0.1,2.2,0.4,3,1.2C55.7,6.7,56,7.5,56,8.3c0,1.4-0.9,2.6-2.2,3
	L57.9,17z M54.1,8.2c0-0.5-0.2-0.9-0.6-1.2c-0.4-0.4-1-0.6-1.6-0.5h-1.5v3.6h1.5c0.6,0.1,1.2-0.2,1.7-0.6
	C53.9,9.2,54.1,8.7,54.1,8.2z"/>
<path class="st1" d="M64.8,17H63V4.9h1.8V17z"/>
<path class="st1" d="M81.5,7.8c-1.2-0.9-2.7-1.4-4.3-1.5c-1.2,0-2.4,0.4-3.2,1.3c-0.9,0.9-1.4,2.1-1.4,3.4c0,1.2,0.5,2.4,1.4,3.3
	c0.8,0.9,2,1.4,3.2,1.4c1.6,0,3.1-0.5,4.3-1.5v1.9c-1.3,0.8-2.8,1.2-4.3,1.2c-1.7,0-3.3-0.6-4.5-1.8c-1.3-1.1-2-2.8-1.9-4.5
	c-0.1-1.7,0.6-3.4,1.9-4.6c1.2-1.1,2.8-1.7,4.5-1.7c1.5,0,3,0.4,4.3,1.2V7.8z"/>
<path class="st1" d="M98.1,17h-1.8l-1.2-3h-5.6l-1.2,3h-1.9l5.1-12.2h1.6L98.1,17z M94.4,12.4l-2.1-5.6l-2.1,5.6L94.4,12.4z"/>
<path class="st1" d="M114.2,17h-1.7l-7.6-9.5V17h-1.7V4.9h1.7l7.6,9.6V4.9h1.7V17z"/>
<path class="st1" d="M135.3,17h-7.4V4.9h1.7v10.6h5.7V17z"/>
<path class="st1" d="M142.3,17h-1.7V4.9h1.7V17z"/>
<path class="st1" d="M159.5,15.9c-0.7,0.4-1.4,0.7-2.2,1c-0.8,0.3-1.6,0.4-2.4,0.4c-1.7,0.1-3.4-0.6-4.6-1.8c-1.3-1.1-2-2.8-2-4.5
	c-0.1-1.7,0.6-3.4,1.9-4.5c1.2-1.2,2.9-1.9,4.6-1.8c1.6,0,3.2,0.4,4.6,1.2v1.9c-1.3-1-2.9-1.5-4.6-1.5c-1.2,0-2.4,0.4-3.3,1.3
	c-0.9,0.9-1.3,2.1-1.3,3.4c0,1.2,0.4,2.4,1.3,3.3c0.9,0.9,2.1,1.4,3.4,1.4c1-0.1,2-0.3,2.9-0.7v-2.9H155v-1.6h4.5L159.5,15.9z"/>
<path class="st1" d="M176.4,17h-1.7v-5.7h-7V17H166V4.9h1.7v4.9h7V4.9h1.7V17z"/>
<path class="st1" d="M191,6.5h-3.8V17h-1.8V6.5h-3.8V4.9h9.4L191,6.5z"/>
<path class="st1" d="M198,17h-1.8V4.9h1.8V17z"/>
<path class="st1" d="M215.4,17h-1.7l-7.6-9.5V17h-1.7V4.9h1.7l7.6,9.6V4.9h1.7V17z"/>
<path class="st1" d="M232.7,15.9l-2.3,1c-0.8,0.3-1.6,0.4-2.4,0.4c-1.7,0-3.4-0.6-4.6-1.8c-1.3-1.1-2-2.8-2-4.5
	c0-1.7,0.7-3.3,1.9-4.5c1.3-1.2,3-1.8,4.7-1.8c1.6,0,3.1,0.5,4.5,1.2v1.9c-1.3-1-2.9-1.5-4.6-1.5c-1.2,0-2.4,0.4-3.3,1.3
	c-0.9,0.9-1.3,2.1-1.3,3.4c0,1.3,0.5,2.5,1.4,3.3c0.9,0.9,2.1,1.4,3.3,1.4c1-0.1,2-0.3,2.9-0.7v-2.9h-2.8v-1.6h4.6V15.9z"/>
<path class="st1" d="M249.5,12.2c0,0.5-0.3,1-0.7,1.3c-0.3,0.3-0.8,0.4-1.2,0.4h-2.1V8.1h1.6c0.5,0,1,0.2,1.4,0.5
	c0.2,0.3,0.4,0.6,0.4,1c0,0.5-0.3,0.9-0.7,1.1c0.4,0.1,0.7,0.3,0.9,0.6C249.3,11.5,249.5,11.9,249.5,12.2z M248,9.6
	c0-0.2-0.1-0.4-0.2-0.5c-0.2-0.2-0.4-0.2-0.7-0.2h-0.8v1.6h0.7C247.7,10.5,248,10.2,248,9.6z M248.6,12.2c0-0.7-0.4-1-1.3-1h-1v1.9
	h1.1l0.9-0.2C248.5,12.7,248.6,12.5,248.6,12.2L248.6,12.2z"/>
<path class="st1" d="M256.6,13.9h-1l-1.8-2.6h-0.7v2.6h-0.8V8.1h1.6c0.5,0,1.1,0.2,1.4,0.6c0.3,0.3,0.4,0.6,0.4,1
	c0,0.7-0.4,1.3-1,1.5L256.6,13.9z M254.9,9.7c0-0.2-0.1-0.5-0.3-0.6l-0.8-0.2h-0.7v1.7h0.7c0.3,0,0.6-0.1,0.8-0.3
	C254.8,10.1,254.9,9.9,254.9,9.7L254.9,9.7z"/>
<path class="st1" d="M259.9,13.9h-0.8V8.1h0.8V13.9z"/>
<path class="st1" d="M268,13.3c-0.3,0.2-0.6,0.4-1,0.5l-1.2,0.2c-0.8,0-1.6-0.3-2.1-0.9c-0.7-0.5-1.1-1.3-1-2.1
	c0-0.8,0.3-1.6,0.9-2.1c0.6-0.6,1.4-0.9,2.2-0.9c0.8,0,1.5,0.2,2.2,0.6v0.9c-0.6-0.5-1.4-0.7-2.2-0.7c-0.6,0-1.2,0.2-1.6,0.6
	c-0.4,0.4-0.6,1-0.6,1.6c0,0.6,0.2,1.2,0.7,1.6c0.4,0.4,0.9,0.6,1.5,0.6c0.5,0,1-0.1,1.4-0.3v-1.4h-1.3v-0.7h2.1V13.3z"/>
<path class="st1" d="M276,13.9h-0.8v-2.7h-3.3v2.7h-0.8V8.1h0.8v2.3h3.3V8.1h0.8V13.9z"/>
<path class="st1" d="M282.9,8.9h-1.8v5h-0.8v-5h-1.9V8.1h4.5V8.9z"/>
<path class="st1" d="M289.8,13.9h-0.9V8.1h0.9V13.9z"/>
<path class="st1" d="M297.7,11c0,0.8-0.3,1.6-0.9,2.1c-0.6,0.5-1.4,0.8-2.2,0.8h-1.8V8.1h1.8c0.8,0,1.6,0.3,2.2,0.8
	C297.4,9.4,297.7,10.2,297.7,11z M296.8,11c0-0.6-0.2-1.1-0.6-1.5c-0.4-0.4-1-0.6-1.6-0.6h-1v4.2h1c0.6,0,1.2-0.2,1.6-0.6
	C296.6,12.1,296.8,11.6,296.8,11z"/>
<path class="st1" d="M304.2,13.9h-3.7V8.1h3.7v0.8h-2.8v1.5h2.1v0.8h-2.1v1.9h2.8V13.9z"/>
<path class="st1" d="M311.9,13.9H311l-0.6-1.5h-2.6l-0.6,1.5h-0.8l2.3-5.8h0.8L311.9,13.9z M310.1,11.7l-1-2.7l-1,2.7H310.1z"/>
<path class="st1" d="M317.9,12.2c0.1,0.9-0.7,1.7-1.6,1.8c-0.1,0-0.1,0-0.2,0c-0.5,0-1-0.1-1.4-0.4c-0.4-0.3-0.6-0.7-0.8-1.1
	l0.7-0.4c0.2,0.6,0.8,1.1,1.4,1.1l0.7-0.2c0.2-0.2,0.3-0.4,0.3-0.7c0-0.3-0.2-0.6-0.7-0.9l-1.3-0.6c-0.4-0.2-0.7-0.7-0.7-1.2
	c0-0.4,0.1-0.9,0.5-1.1c0.3-0.3,0.7-0.5,1.2-0.5c0.7,0,1.4,0.4,1.8,1l-0.7,0.5c-0.2-0.4-0.6-0.7-1.1-0.7L315.3,9
	c-0.1,0.2-0.1,0.3-0.1,0.5c0,0.3,0.2,0.5,0.7,0.8l1.3,0.6C317.6,11.2,317.9,11.7,317.9,12.2z"/>
<path class="st1" d="M335.3,13.9h-0.9V8.1h0.9V13.9z"/>
<path class="st1" d="M343.5,13.9h-0.8l-3.6-4.5v4.5h-0.8V8.1h0.8l3.6,4.5V8.1h0.8V13.9z"/>
<path class="st1" d="M351.7,13.9h-0.8l-3.6-4.5v4.5h-0.8V8.1h0.8l3.6,4.5V8.1h0.8V13.9z"/>
<path class="st1" d="M360.7,11c0,0.8-0.3,1.6-0.9,2.1c-0.6,0.6-1.4,0.9-2.2,0.9c-0.8,0-1.6-0.3-2.1-0.9c-0.6-0.5-0.9-1.3-0.9-2.1
	c0-0.8,0.3-1.6,0.9-2.2c0.6-0.5,1.3-0.8,2.1-0.8c0.8,0,1.6,0.3,2.2,0.8C360.4,9.4,360.7,10.2,360.7,11z M359.8,11
	c0-0.6-0.2-1.2-0.6-1.6c-0.4-0.4-1-0.6-1.6-0.6c-0.6,0-1.1,0.2-1.5,0.6c-0.9,0.8-0.9,2.2-0.1,3.1c0,0,0.1,0.1,0.1,0.1
	c0.4,0.4,0.9,0.6,1.5,0.6c0.6,0,1.2-0.2,1.6-0.6C359.6,12.2,359.8,11.6,359.8,11z"/>
<path class="st1" d="M368.3,8.1l-2.3,5.8h-0.7l-2.4-5.8h0.9l1.9,4.7l1.8-4.7H368.3z"/>
<path class="st1" d="M375.5,13.9h-0.9l-0.5-1.5h-2.6l-0.6,1.5H370l2.4-5.8h0.7L375.5,13.9z M373.8,11.7l-1-2.7l-1,2.7H373.8z"/>
<path class="st1" d="M381.3,8.9h-1.9v5h-0.8v-5h-1.8V8.1h4.5V8.9z"/>
<path class="st1" d="M384.5,13.9h-0.8V8.1h0.8V13.9z"/>
<path class="st1" d="M392.3,8.1l-2.4,5.8h-0.7l-2.3-5.8h0.9l1.8,4.7l1.8-4.7H392.3z"/>
<path class="st1" d="M398.3,13.9h-3.6V8.1h3.6v0.8h-2.8v1.5h2.2v0.8h-2.2v1.9h2.8V13.9z"/>
<path class="st1" d="M408.2,12.2c0.1,0.9-0.7,1.7-1.6,1.8c-0.1,0-0.1,0-0.2,0c-0.5,0-1-0.1-1.4-0.4c-0.4-0.3-0.6-0.7-0.8-1.1
	l0.8-0.4c0.1,0.6,0.7,1.1,1.3,1.1L407,13c0.2-0.2,0.3-0.4,0.3-0.7c0-0.3-0.2-0.6-0.7-0.9l-1.3-0.6c-0.4-0.2-0.7-0.7-0.7-1.2
	c0-0.4,0.2-0.8,0.5-1.1c0.3-0.3,0.7-0.5,1.2-0.5c0.7,0,1.4,0.3,1.8,1l-0.7,0.5c-0.2-0.4-0.6-0.7-1.1-0.7L405.6,9
	c-0.1,0.2-0.1,0.3-0.1,0.5c0,0.3,0.2,0.5,0.7,0.8l1.3,0.6C407.9,11.2,408.2,11.7,408.2,12.2z"/>
<path class="st1" d="M416.9,11c0,0.8-0.3,1.6-0.9,2.1c-0.5,0.6-1.3,0.9-2.1,0.9c-0.8,0-1.6-0.3-2.2-0.9c-0.6-0.5-0.9-1.3-0.9-2.1
	c0-0.8,0.3-1.6,0.9-2.2c0.6-0.5,1.4-0.8,2.2-0.8c0.8,0,1.5,0.3,2.1,0.8C416.6,9.4,416.9,10.2,416.9,11z M416,11
	c0-0.6-0.2-1.2-0.6-1.6c-0.4-0.4-0.9-0.6-1.5-0.6c-1.2,0-2.2,1-2.2,2.2s1,2.2,2.2,2.2c0.6,0,1.1-0.2,1.5-0.6
	C415.8,12.2,416,11.6,416,11z"/>
<path class="st1" d="M423.3,13.9h-3.6V8.1h0.9v5h2.7V13.9z"/>
<path class="st1" d="M430.4,11.4c0.1,1.3-0.9,2.5-2.2,2.6c-0.1,0-0.3,0-0.4,0c-0.6,0-1.2-0.2-1.7-0.6c-0.6-0.5-0.9-1.2-0.8-2V8.1
	h0.8v3.3c0,0.5,0.2,1.1,0.6,1.4c0.3,0.3,0.7,0.4,1.1,0.4c0.4,0,0.9-0.1,1.2-0.4c0.4-0.3,0.6-0.9,0.6-1.4V8.1h0.8L430.4,11.4z"/>
<path class="st1" d="M437.2,8.9h-1.8v5h-0.8v-5h-1.8V8.1h4.4L437.2,8.9z"/>
<path class="st1" d="M440.5,13.9h-0.8V8.1h0.8V13.9z"/>
<path class="st1" d="M449.5,11c0,0.8-0.3,1.6-0.9,2.1c-0.6,0.6-1.4,0.9-2.2,0.9c-0.8,0-1.6-0.3-2.1-0.9c-0.6-0.5-0.9-1.3-0.9-2.1
	c0-0.8,0.3-1.6,0.9-2.2c0.6-0.5,1.3-0.8,2.1-0.8c0.8,0,1.6,0.3,2.2,0.8C449.2,9.4,449.5,10.2,449.5,11z M448.6,11
	c0-0.6-0.2-1.2-0.6-1.6c-0.4-0.4-1-0.6-1.6-0.6c-0.6,0-1.1,0.2-1.5,0.6c-0.8,0.9-0.8,2.3,0,3.2c0.4,0.4,0.9,0.6,1.5,0.6
	c0.6,0,1.2-0.2,1.6-0.6C448.4,12.2,448.6,11.6,448.6,11z"/>
<path class="st1" d="M457.5,13.9h-0.8l-3.6-4.5v4.5h-0.8V8.1h0.8l3.6,4.5V8.1h0.8L457.5,13.9z"/>
<path class="st1" d="M464.3,12.2c0.1,0.9-0.7,1.7-1.6,1.8c-0.1,0-0.1,0-0.2,0c-0.5,0-1-0.1-1.4-0.4c-0.4-0.3-0.6-0.7-0.8-1.1
	l0.7-0.4c0.2,0.6,0.8,1.1,1.4,1.1l0.7-0.2c0.2-0.2,0.3-0.4,0.3-0.7c0-0.3-0.2-0.6-0.7-0.9l-1.3-0.6c-0.4-0.2-0.7-0.7-0.7-1.2
	c0-0.4,0.1-0.9,0.5-1.1c0.3-0.3,0.7-0.5,1.2-0.5c0.7,0,1.4,0.4,1.8,1l-0.7,0.5c-0.2-0.4-0.6-0.7-1.1-0.7L461.7,9
	c-0.1,0.2-0.1,0.3-0.1,0.5c0,0.3,0.2,0.5,0.7,0.8l1.3,0.6C464,11.2,464.3,11.7,464.3,12.2z"/>
<circle class="st1" cx="326.2" cy="11" r="0.9"/>
</svg>
