<svg id="Layer_1" data-name="Layer 1" xmlns="http://www.w3.org/2000/svg" viewBox="0 0 1464.2 369.1"><defs><style>.cls-1{fill:#231f20;}.cls-2{fill:#0097db;}</style></defs><title>Prizm logo_linear black</title><path class="cls-1" d="M1.3-35.6H84.9c50.6,0,85.5,26,85.5,70.5v.6c0,48.4-41.8,73.4-89.8,73.4H18.4v85.9H1.3ZM81.6,93.1c42.8,0,71.7-22.4,71.7-56.6v-.6c0-36.6-28.3-55.7-69.8-55.7H18.4V93.1Z" transform="translate(398 105)"/><path class="cls-1" d="M243.4-35.6h96.7c28.3,0,51,8.9,64.9,22.7a61,61,0,0,1,17.4,42.8v.7c0,38.5-28.6,60.5-67.5,65.8l76,98.4H409.2L335.9,99.3H260.5v95.5H243.4ZM338.2,83.9c38.5,0,67.1-19.4,67.1-52.7v-.6c0-30.9-24.4-50.4-66.1-50.4H260.5V83.9Z" transform="translate(398 105)"/><path class="cls-1" d="M504-35.6h17.1V194.8H504Z" transform="translate(398 105)"/><path class="cls-1" d="M594.1,185.2,751.7-20.1h-152V-35.6H776V-26L618.4,179.3H776v15.5H594.1Z" transform="translate(398 105)"/><path class="cls-1" d="M849-35.6h16.1l92.5,136.3,92.5-136.3h16.1V194.8h-17.1V-5.2L957.9,127.4h-1.3L865.5-5.2v200H849Z" transform="translate(398 105)"/><path class="cls-2" d="M-259.2-86l-11.7-19L-377.1,67.2a127,127,0,0,0,36.4,176,127.1,127.1,0,0,0,176-36.3,127,127,0,0,0,0-139.7L-238.4-52.3l-99.4,161.2h23.4l76-123.2,57.1,92.6h0a107.3,107.3,0,0,1-30.6,148.5,107.3,107.3,0,0,1-148.5-30.6,107.4,107.4,0,0,1,0-117.9Z" transform="translate(398 105)"/></svg>