<svg id="Layer_1" data-name="Layer 1" xmlns="http://www.w3.org/2000/svg" viewBox="0 0 641.4 160"><defs><style>.cls-1{fill:#141414;}.cls-2{fill:#0097db;}</style></defs><title>SENIK ICON</title><path class="cls-1" d="M211.8,149.3c-14.9,0-26.9-2.4-35.9-7.2-11.2-5.9-16.8-15-16.8-27.5v-3.7h8.7V114q0,28,44.1,28.1c10.2,0,18.6-1.4,25.5-4.2,8.7-3.6,13.1-9.1,13.1-16.6,0-5.2-1.6-9.2-4.8-11.9s-7.1-4.3-13.5-6c-3.4-.9-11.5-2.5-24.2-4.9-14.7-2.8-24.5-5.4-29.7-7.7-10.3-4.7-15.5-11.7-15.5-21.1q0-26.7,45.7-26.7c31.8,0,47.9,11.1,48.3,33.5h-8.5c-.7-10.7-4.8-18-12.3-21.6s-15.3-4.7-27.5-4.7c-24.7,0-37,6.5-37,19.5,0,6.4,3.4,11.2,10.1,14.3q6.9,3.3,23.7,6c20.7,3.3,34.5,6.8,41.4,10.6a24.3,24.3,0,0,1,12.5,21.2c0,9.6-5.5,16.9-16.6,21.8C234.1,147.4,223.8,149.3,211.8,149.3Z" transform="translate(-9.9 -8.5)"/><path class="cls-1" d="M280.7,148.2V44.1h88v7.2H289.2V90.5h70.5v7H289.2V141h80.3v7.2Z" transform="translate(-9.9 -8.5)"/><path class="cls-1" d="M478,148.2,394.1,55.8v92.4h-8.7V44.1h9.1Q409,60.9,436.4,90.3q29.6,31.5,42,45.8v-92h8.7V148.2Z" transform="translate(-9.9 -8.5)"/><path class="cls-1" d="M509.9,148.2V44.1h8.7V148.2Z" transform="translate(-9.9 -8.5)"/><path class="cls-1" d="M639.2,148.2,574.7,93.4,550,110.3v37.9h-8.7V44.1H550v57l85.1-57h13.8L581.7,88.9l69.6,59.3Z" transform="translate(-9.9 -8.5)"/><rect class="cls-1" x="279.3" y="19" width="71" height="8.29"/><path class="cls-2" d="M70.1,16.8l-5-8.3L19.1,83A55.1,55.1,0,1,0,111,83L79.1,31.3l-43,69.8H46.2L79.1,47.8l24.7,40h0a46.4,46.4,0,1,1-77.5,0Z" transform="translate(-9.9 -8.5)"/></svg>